<?xml version="1.0" encoding="utf-8"?>
<svg width="355" height="721" viewBox="0 0 355 721" fill="none" xmlns="http://www.w3.org/2000/svg">
  <defs>
    <linearGradient id="gradient_1" gradientUnits="userSpaceOnUse" x1="42.088" y1="0" x2="42.088" y2="112.505">
      <stop offset="0" stop-color="#F85032" />
      <stop offset="1" stop-color="#E73827" />
    </linearGradient>
  </defs>
  <g id="Tunisian States" transform="translate(7 6)">
    <path id="states-map-of-tunisia-with-detailed-borders-free-vector 1 (Traced)" d="M31.3836 3.41373C32.5782 2.52565 33.4869 1.66998 34.3439 0.625137C34.6089 0.302048 34.7673 0.0995331 34.9714 0.0285339C35.302 -0.086441 35.7524 0.143448 36.9698 0.764648C37.0069 0.783615 37.0448 0.802948 37.0834 0.822632C38.7058 1.65028 38.9082 1.66298 40.1606 1.0153C41.4883 0.328674 41.5325 0.343109 44.5821 2.42667C46.5899 3.79819 49.1166 5.00552 51.8386 5.8936C55.3611 7.04266 55.834 7.30101 54.8593 7.54581C53.2548 7.94867 53.4037 8.3183 55.6506 9.50983C57.0615 10.2586 57.6728 10.8892 57.8733 11.8027C58.2618 13.5705 60.1443 14.9609 61.7225 14.6452C62.7498 14.4398 63.2267 14.6719 64.4564 15.9751C65.5748 17.1614 66.1388 17.4666 66.7216 17.2017C68.0962 16.5772 72.5212 16.4594 73.2074 17.0291C73.5639 17.3247 73.8476 18.299 73.8476 19.2283C73.8476 20.588 74.0946 21.0723 75.1819 21.8465C75.9159 22.3694 77.3443 22.9071 78.3567 23.042C79.3692 23.1769 80.3943 23.5342 80.6352 23.8364C80.876 24.1385 81.4567 24.4521 81.9252 24.5335C82.3938 24.615 83.1439 25.309 83.5923 26.0767C84.3333 27.3457 84.3481 27.5866 83.753 28.7366C83.3935 29.432 82.1508 30.7588 80.9916 31.6845C78.3406 33.8014 77.9482 34.2673 74.5382 39.3483C71.4874 43.8942 69.9162 47.7592 70.6426 48.9319C70.8835 49.3208 71.8153 49.9921 72.7135 50.4234C73.612 50.8548 74.6565 51.7468 75.0348 52.4063C75.4132 53.0653 76.68 54.182 77.8505 54.8874C79.0206 55.5925 79.9722 56.2769 79.9643 56.4078C79.9569 56.5388 79.6674 57.0196 79.3214 57.4763C78.9755 57.9335 78.8161 58.5067 78.9667 58.7507C79.3674 59.3992 79.169 62.666 78.7005 63.1345C78.4575 63.3776 78.5227 64.2779 78.866 65.4187C79.1778 66.4543 79.3328 67.8258 79.2102 68.4665C79.0609 69.2482 79.3061 70.0622 79.956 70.9411C80.4889 71.6619 80.8261 72.5084 80.7057 72.8228C80.5756 73.1613 79.0386 73.6058 76.9362 73.9132C74.9831 74.1987 72.3566 74.9116 71.0989 75.4971C69.8408 76.0826 68.3344 76.5638 67.7516 76.566C66.6564 76.5704 65.0896 77.6853 65.0896 78.4595C65.0896 78.7012 64.2978 79.9475 63.3305 81.2293C60.6562 84.7715 60.0616 86.951 61.374 88.4009C61.9787 89.0695 61.8149 89.2889 59.5129 90.8961C57.2156 92.4997 51.2881 95.4004 50.3081 95.4004C50.0865 95.4004 48.8048 96.1886 47.4595 97.152C46.1139 98.1154 44.8413 98.9036 44.6307 98.9036C44.4201 98.9036 42.9093 99.7829 41.2733 100.858C39.6368 101.932 37.238 103.208 35.9422 103.693C34.646 104.178 32.4544 105.278 31.0667 106.067C29.6785 106.856 27.3527 107.977 25.9041 108.631C23.4501 109.738 23.2776 109.911 23.3827 111.162C23.3827 111.162 23.4957 112.505 23.4957 112.505C23.4957 112.505 22.069 111.779 22.069 111.779C21.2843 111.38 19.3614 110.02 17.7959 108.757C16.2304 107.494 14.3584 106.358 13.6358 106.233C12.9133 106.109 10.4641 105.183 8.19356 104.176C5.92259 103.169 3.71249 102.438 3.28203 102.55C2.33703 102.797 1.9683 101.852 2.09223 99.4996C2.18594 97.7279 1.32546 92.6175 0.740856 91.4706C0.552998 91.1032 0.274498 89.9808 0.121231 88.9767C-0.14151 87.254 -0.0740662 87.0994 1.31716 86.2398C2.12815 85.7384 3.21151 85.3285 3.72517 85.3285C4.54405 85.3285 4.66143 85.0723 4.68114 83.2485C4.74814 76.9702 6.7511 71.4044 10.1611 68.0216C11.7725 66.4237 12.633 65.1459 12.9965 63.8137C13.7164 61.1749 14.7078 59.2529 16.3167 57.3774C17.4355 56.0729 17.6059 55.6131 17.2551 54.8428C16.9122 54.0909 16.2974 53.8417 14.1955 53.604C12.2245 53.3811 11.0154 52.9287 9.37634 51.8011C8.17254 50.9734 6.83519 50.296 6.40429 50.296C5.22107 50.296 4.84316 48.3661 5.16151 43.9464C5.72203 36.1608 6.72964 33.6805 9.33999 33.6621C10.7662 33.6525 10.9086 30.8805 9.58521 28.8867C8.89114 27.8415 8.59687 26.741 8.58943 25.1645C8.58373 23.934 8.39719 22.143 8.17518 21.1853C7.68122 19.0544 8.38228 17.2975 9.80809 17.0939C10.348 17.0173 10.7895 16.7988 10.7895 16.6083C10.7895 15.9878 14.2231 12.3444 14.8129 12.3391C15.1291 12.3361 16.6924 12.192 18.2877 12.0181C18.2877 12.0181 21.1879 11.7024 21.1879 11.7024C21.1879 11.7024 22.5603 13.3673 22.5603 13.3673C23.7737 14.8396 24.033 14.9696 24.7993 14.491C25.2762 14.1932 25.9396 13.9498 26.2733 13.9498C26.607 13.9498 27.689 13.0726 28.6774 12.0002C30.4356 10.0927 30.4728 9.98756 30.3883 7.13417C30.3099 4.49052 30.4027 4.14241 31.3836 3.41373C31.3836 3.41373 31.3836 3.41373 31.3836 3.41373C31.3836 3.41373 31.3836 3.41373 31.3836 3.41373Z" fill="url(#gradient_1)" fill-rule="evenodd" transform="translate(59.117 158.522)" />
    <path id="states-map-of-tunisia-with-detailed-borders-free-vector 1 (Traced)#1" d="M74.0928 2.28255C77.5308 3.69655 78.3921 3.61421 81.4329 1.58276C84.9147 -0.74295 85.3741 -0.613754 85.3741 2.69287C85.3741 5.0094 85.5637 5.58261 87.0162 7.65961C87.9196 8.95099 88.6645 10.2319 88.6724 10.506C88.6798 10.7801 88.9583 11.363 89.2907 11.8017C89.8639 12.558 89.9707 12.5611 91.3567 11.8613C92.1607 11.4554 93.3426 10.633 93.9837 10.0339C95.1354 8.95755 95.1542 8.95493 95.6258 9.83643C95.8882 10.3265 96.1058 11.5784 96.1093 12.6176C96.1128 13.6572 96.3646 15.0002 96.6689 15.6023C97.2294 16.7107 97.6323 16.839 103.048 17.636C103.048 17.636 104.957 17.9167 104.957 17.9167C104.957 17.9167 104.665 20.1194 104.665 20.1194C104.244 23.2894 102.84 25.6742 101.395 25.6742C100.502 25.6742 97.0092 29.0395 96.4929 30.3975C96.2783 30.9619 96.1027 32.8821 96.1027 34.6644C96.1027 37.5918 95.9827 38.0442 94.863 39.3435C94.1812 40.1348 93.4889 41.1489 93.3251 41.5978C93.0816 42.2643 92.9078 42.3146 92.3753 41.8724C91.813 41.4055 91.7237 41.6385 91.7237 43.5749C91.7237 45.1777 91.5533 45.8179 91.1264 45.8179C90.4021 45.8179 83.8414 50.9265 83.8414 51.4901C83.8414 51.7099 83.4897 52.0011 83.0602 52.1373C81.852 52.5209 80.7761 54.731 80.7747 56.833C80.7734 58.6928 80.7402 58.737 79.3091 58.7663C78.4425 58.7839 77.4261 59.1863 76.8192 59.7516C76.2556 60.2767 75.5672 60.7067 75.29 60.7067C74.7602 60.7067 72.018 63.5212 72.018 64.065C72.018 64.2389 71.503 64.9185 70.8733 65.5758C70.1074 66.3754 69.6546 67.4238 69.5062 68.7436C69.2478 71.0334 68.4101 71.5607 64.7926 71.7078C63.5883 71.7569 62.1104 72.0275 61.5083 72.3095C57.6499 74.1145 56.7684 74.7254 55.1784 76.6964C54.2041 77.9042 53.0997 79.3637 52.7235 79.94C52.2129 80.7234 51.6668 80.9779 50.5629 80.9463C48.9225 80.8999 47.9696 81.7867 47.9473 83.3798C47.9337 84.3454 47.8925 84.355 46.6204 83.6972C45.4302 83.082 45.2082 83.0838 44.24 83.7183C43.6523 84.1032 43.0449 84.9948 42.8904 85.6998C42.6767 86.6728 42.3613 86.9811 41.5801 86.9811C41.0144 86.9811 40.2297 87.303 39.8364 87.6962C39.2382 88.2944 38.9313 88.3242 37.9552 87.8797C36.9265 87.4111 36.6967 87.4615 36.0113 88.308C35.5839 88.8357 35.234 89.5416 35.234 89.8761C35.234 90.233 34.7817 90.4844 34.1393 90.4844C33.5372 90.4844 33.0445 90.6814 33.0445 90.9223C33.0445 91.1631 32.7941 91.3602 32.4875 91.3602C32.181 91.3602 31.1751 91.9825 30.2525 92.7431C29.0281 93.7525 27.9364 95.4594 26.2115 99.0603C24.9118 101.774 23.8485 104.206 23.8485 104.465C23.8485 105.331 23.041 104.948 22.1087 103.638C20.2945 101.09 15.8354 101.631 16.8412 104.277C17.2909 105.459 17.0413 105.811 15.7565 105.811C14.7778 105.811 13.098 103.917 12.1482 101.743C11.7803 100.9 10.8349 100.163 9.1078 99.3726C9.1078 99.3726 6.60168 98.2252 6.60168 98.2252L5.00948 99.1418L3.41725 100.058C3.41725 100.058 1.48128 98.886 1.48128 98.886C-0.234879 97.8473 -0.340408 97.6976 0.555115 97.5688C2.25156 97.3245 2.65527 95.6858 1.57059 93.4446C-0.040451 90.1161 0.152664 89.8599 4.76555 89.2065C9.07977 88.5957 10.5047 87.8 11.8995 85.2216C12.5708 83.981 13.6598 82.1983 14.3202 81.2607C15.3738 79.7635 15.6492 79.6041 16.5762 79.9566C17.4748 80.2987 17.8948 80.1086 19.3938 78.6828C20.5848 77.5495 21.8972 76.8169 23.4478 76.4192C25.5927 75.8697 25.8051 75.6897 26.7352 73.6337C27.2822 72.4247 27.8584 70.7247 28.0156 69.8559C28.2972 68.2991 28.2648 68.2558 25.7622 66.8431C24.3653 66.0549 22.1828 64.6251 20.9124 63.6657C18.8166 62.0835 18.4488 61.9534 16.9555 62.2661C16.0504 62.4557 14.9153 62.6366 14.4336 62.6681C13.9519 62.6996 13.006 62.8862 12.3312 63.0828C11.0499 63.4564 10.6006 63.1161 9.35654 60.832C8.88667 59.9689 9.17262 59.2862 11.9603 54.6246C13.6826 51.7441 15.7526 47.82 16.5605 45.9046C17.3685 43.9892 18.5494 41.7401 19.1853 40.9063C19.8211 40.073 20.21 39.2598 20.0497 39.0995C19.889 38.9393 20.1605 38.3652 20.6523 37.8243C22.8615 35.394 24.653 32.1714 25.7385 28.6756C27.0282 24.5203 27.1797 23.0498 26.3989 22.269C25.6939 21.564 27.2392 19.452 31.9546 14.6762C35.3028 11.285 35.8834 10.8756 37.6959 10.6269C39.247 10.4145 40.1815 10.5647 41.7431 11.2776C43.1277 11.9095 44.7475 12.2221 46.8385 12.2611C49.8071 12.3163 50.0203 12.3969 53.5923 14.8159C53.791 14.9505 53.9797 15.0792 54.1594 15.2018C55.6981 16.2512 56.5775 16.8511 57.4534 16.8459C58.7242 16.8384 59.9875 15.5574 63.2455 12.5282C66.5556 9.45064 68.1614 8.39746 70.8558 7.53566C71.6296 7.28824 71.6247 7.21161 70.7463 5.72229C69.6204 3.8139 69.6192 3.72501 70.699 2.35217C70.699 2.35217 71.57 1.24515 71.57 1.24515L74.0928 2.28255L74.0928 2.28255C74.0928 2.28255 74.0928 2.28255 74.0928 2.28255Z" fill="url(#gradient_1)" fill-rule="evenodd" transform="translate(179.103 210.633)" />
    <path id="states-map-of-tunisia-with-detailed-borders-free-vector 1 (Traced)#2" d="M4.75211 1.80594L6.17006 0.902969L7.58842 0C7.58842 0 8.37183 1.82124 8.37183 1.82124C8.80228 2.82274 9.98463 4.55205 10.9993 5.66389C12.0134 6.77574 13.0404 7.99748 13.2812 8.37846C13.522 8.75945 14.2656 9.19691 14.9334 9.35063C15.8998 9.57309 16.2147 9.4496 16.4752 8.74501C16.8024 7.86044 16.8037 7.86044 18.5452 8.78705C19.5034 9.29721 20.444 9.98428 20.6353 10.314C21.9039 12.5018 24.7709 15.1603 26.5843 15.8303C29.8322 17.0315 30.3739 16.8901 31.6727 14.5039C32.3046 13.343 33.3788 12.0639 34.0602 11.6615C34.7411 11.259 35.423 10.4349 35.5749 9.8297C35.8504 8.73055 35.8556 8.72922 39.6737 9.01605C41.7765 9.17413 43.5649 9.47762 43.6481 9.69087C44.072 10.7769 46.2519 12.8635 47.5126 13.3903C50.5236 14.6484 53.7873 13.7109 53.7873 11.5883C53.7873 10.4397 56.9915 7.37041 59.724 5.90166C61.2917 5.05913 61.3377 5.05872 61.9301 5.86884C62.4596 6.59314 62.6689 6.62509 63.6012 6.12589C64.2059 5.80228 65.1557 5.6779 65.796 5.83861C66.8487 6.1031 66.9244 6.01814 66.9244 4.58093C66.9244 3.36749 67.0987 3.03995 67.7433 3.03995C68.3919 3.03995 68.6095 3.45947 68.7895 5.05608C68.9143 6.16486 69.4564 7.66731 69.9942 8.39468C70.8927 9.60988 70.9269 9.86299 70.415 11.524C69.7677 13.6255 69.0146 19.7106 68.9717 23.1854C68.9323 26.3764 70.5279 29.3065 74.2532 32.8837C76.6463 35.1819 76.9595 35.65 76.3363 35.9985C75.933 36.2241 75.3655 36.9308 75.0747 37.5689C74.0369 39.8469 72.8361 41.5306 72.1158 41.7194C71.275 41.9392 68.6761 45.3549 68.6761 46.2394C68.6761 47.0369 66.1769 47.0062 64.6119 46.1899C63.9423 45.8405 63.1046 45.6658 62.7508 45.8015C62.2397 45.9977 62.1062 45.6106 62.1005 43.9216C62.0913 41.32 60.7053 38.6724 58.7553 37.5334C58.7553 37.5334 57.3737 36.7268 57.3737 36.7268C57.3737 36.7268 56.3386 38.6037 56.3386 38.6037C55.7689 39.6362 55.0805 40.481 54.8081 40.481C54.5362 40.481 53.6218 39.4532 52.7762 38.1968C51.4664 36.2508 51.2742 35.6526 51.4752 34.1545C51.8036 31.7057 50.9107 29.7864 49.0895 29.0253C47.6453 28.4219 47.5279 28.4565 44.421 30.3929C42.6676 31.4859 40.9874 32.3797 40.687 32.3797C40.3861 32.3797 38.7931 31.7885 37.147 31.066C35.5009 30.3434 33.5588 29.7523 32.8314 29.7523C31.5773 29.7523 31.5217 29.8276 31.7463 31.2131C31.9355 32.3779 31.7524 32.9236 30.8429 33.9045C29.5161 35.3364 29.4517 35.7555 30.3989 36.8021C31.0439 37.515 30.9988 37.621 29.7814 38.2507C29.0589 38.6242 26.7621 40.5103 24.6768 42.4419C22.4291 44.5243 21.5046 45.483 20.5531 45.5106C19.8089 45.5322 19.048 44.984 17.6245 43.9583C17.4389 43.8247 17.2422 43.6829 17.0327 43.5332C14.721 41.8814 12.3875 41.1435 9.46445 41.1404C8.32854 41.1391 6.68242 40.7962 5.80661 40.3785C5.80661 40.3785 4.2144 39.6192 4.2144 39.6192C4.2144 39.6192 4.49771 37.1135 4.49771 37.1135C4.79813 34.4576 4.5656 33.9728 2.22588 32.3797C1.28438 31.7386 1.27167 31.6129 1.70212 27.1638C1.70212 27.1638 2.14355 22.6052 2.14355 22.6052C2.14355 22.6052 0.982666 21.3935 0.982666 21.3935C0.0144653 20.3828 -0.133148 19.9221 0.0923767 18.6172C0.241257 17.7571 0.482574 16.3663 0.629272 15.5269C0.82283 14.4163 1.29971 13.7507 2.38089 13.0825C3.28122 12.5263 3.86626 11.8139 3.86626 11.2744C3.86626 10.7821 4.69739 9.63658 5.72734 8.70998C5.72734 8.70998 7.58842 7.03542 7.58842 7.03542L6.17006 4.42068L4.75211 1.80594L4.75211 1.80594L4.75211 1.80594Z" fill="url(#gradient_1)" fill-rule="evenodd" transform="translate(215.449 179.542)" />
    <path id="states-map-of-tunisia-with-detailed-borders-free-vector 1 (Traced)#3" d="M3.12479 7.32229C5.25913 4.14528 7.07688 2.14404 9.13678 0.70377C10.8884 -0.521494 11.2554 -0.146646 10.235 1.82656C9.61321 3.02949 9.59482 3.5957 10.0835 6.50384C10.4387 8.61849 10.8726 9.90244 11.286 10.061C11.6416 10.1971 13.1633 9.87922 14.6679 9.35417C16.1726 8.82912 17.7039 8.39954 18.0709 8.39954C18.8114 8.39954 20.0857 12.0793 20.0857 14.2184C20.0857 14.9808 20.6173 16.1702 21.3994 17.1577C22.3111 18.3089 22.7131 19.3008 22.7131 20.3999C22.7131 21.5043 23.003 22.2137 23.6712 22.7454C24.1985 23.1644 25.4601 24.3731 26.4756 25.4315C28.0774 27.1017 28.4956 27.321 29.6412 27.092C30.5963 26.9011 31.2742 27.0741 32.0922 27.7174C33.4952 28.8209 33.4961 29.2137 32.1044 32.3605C32.1044 32.3605 30.9864 34.8889 30.9864 34.8889C30.9864 34.8889 31.776 37.6661 31.776 37.6661C32.4753 40.1246 32.7416 40.5174 34.0986 41.0901C34.9416 41.4462 36.1822 41.6292 36.8557 41.4969C38.3752 41.1983 41.617 38.5678 45.9737 34.0976C49.3596 30.6229 49.8632 30.4766 49.8632 32.9674C49.8632 33.4382 50.33 34.0293 50.9098 34.2938C51.4852 34.5561 52.1613 35.2213 52.4122 35.7717C52.7157 36.4374 53.6493 37.0277 55.1977 37.533C56.4786 37.9508 58.369 38.9737 59.3985 39.8058C60.4281 40.6382 61.9555 41.5083 62.7923 41.7396C63.9365 42.0553 64.3162 42.399 64.3236 43.1242C64.3385 44.6192 65.7477 47.3855 68.4829 51.289C68.4829 51.289 70.9842 54.8583 70.9842 54.8583C70.9842 54.8583 69.1905 56.5145 69.1905 56.5145C68.2039 57.4254 66.9944 59.0802 66.5022 60.1921C65.5651 62.3111 63.9742 63.8626 62.3102 64.2799C61.1226 64.5781 60.5927 66.2912 61.2868 67.5883C61.7676 68.4864 61.7151 68.5097 59.7349 68.2868C58.1348 68.1063 57.5243 68.2259 56.9493 68.8311C56.5443 69.2576 55.4013 69.7406 54.4099 69.9044C52.6964 70.1868 52.4792 70.0896 50.0335 67.9496C47.8532 66.0416 47.2585 65.732 46.1436 65.9251C45.4197 66.0504 42.9552 66.229 40.6672 66.3223C36.2895 66.5005 33.814 67.2467 32.0247 68.9278C31.2369 69.6675 31.0333 70.3353 31.0333 72.1758C31.0333 74.0522 30.8651 74.5825 30.1483 74.9661C29.1897 75.4794 28.4952 75.2223 27.6404 74.0391C26.4638 72.411 19.5063 71.7795 17.5257 73.1217C15.165 74.7214 14.1052 74.9775 13.3402 74.1319C12.9557 73.7072 12.6413 73.1055 12.6413 72.795C12.6413 72.4845 12.0432 71.515 11.3123 70.6401C9.15736 68.0608 9.08555 67.9548 9.49805 67.9548C9.71482 67.9548 10.0064 66.822 10.1466 65.4369C10.2863 64.0518 10.9002 61.7365 11.5107 60.2915C12.9776 56.8184 12.9895 54.1327 11.5466 52.0325C11.5466 52.0325 9.35704 48.8446 9.35704 48.8446C8.03938 46.9265 8.00873 46.2855 9.11181 43.7119C9.11181 43.7119 9.96177 41.7295 9.96177 41.7295C9.96177 41.7295 8.80747 39.1178 8.80747 39.1178C7.45303 36.0529 5.97247 35.1118 2.50602 35.1118C2.50602 35.1118 0.282341 35.1118 0.282341 35.1118C0.282341 35.1118 0.574417 33.5564 0.574417 33.5564C0.76535 32.5369 1.44631 31.4763 2.54852 30.4805C4.46435 28.7499 5.63486 26.5775 5.63443 24.7549C5.634 23.7118 5.27053 23.3032 3.41513 22.261C0.86171 20.8269 0.489044 20.1884 1.25012 18.5528C2.59186 15.6688 2.58923 15.0211 1.22954 13.4723C-0.246201 11.7916 -0.332474 11.362 0.644928 10.551C1.0316 10.23 2.14739 8.77702 3.12479 7.32229C3.12479 7.32229 3.12479 7.32229 3.12479 7.32229C3.12479 7.32229 3.12479 7.32229 3.12479 7.32229Z" fill="url(#gradient_1)" fill-rule="evenodd" transform="translate(115.607 20.582)" />
    <path id="states-map-of-tunisia-with-detailed-borders-free-vector 1 (Traced)#4" d="M1.02357 1.51971C0.636902 1.09232 0.46524 0.50771 0.642593 0.220882C0.870743 -0.147835 1.09671 -0.0598106 1.41331 0.521729C1.65941 0.974087 2.12489 1.50175 2.44719 1.69443C3.27963 2.19146 3.1741 3.21703 2.15773 4.50886C1.67603 5.12149 1.28192 5.39869 1.28192 5.12544C1.28192 4.85219 0.986328 4.62841 0.625061 4.62841C-0.282272 4.62841 -0.196426 4.03724 0.847549 3.09268C1.65898 2.35831 1.67255 2.23657 1.02357 1.51971C1.02357 1.51971 1.02357 1.51971 1.02357 1.51971C1.02357 1.51971 1.02357 1.51971 1.02357 1.51971Z" fill="url(#gradient_1)" fill-rule="evenodd" transform="translate(223.769 45.98)" />
    <path id="states-map-of-tunisia-with-detailed-borders-free-vector 1 (Traced)#5" d="M116.658 0.387726C114.948 0.568146 113.096 0.957886 112.544 1.25345C111.747 1.68042 111.191 1.67603 109.852 1.23419C107.933 0.600983 105.477 1.10938 103.768 2.49316C102.948 3.15659 102.871 3.43335 103.287 4.21106C104.084 5.69952 103.866 7.21991 102.65 8.66544C101.609 9.90295 101.296 10.0125 98.8179 10.0085C96.8723 10.0055 95.4701 9.70154 93.789 8.91901C91.5951 7.89783 91.3805 7.87415 90.1412 8.5148C89.1818 9.01096 87.1985 9.22949 82.8383 9.3197C75.023 9.48172 74.2593 9.77817 73.3397 13.0042C72.9509 14.3696 71.9634 16.472 71.145 17.6763C66 25.249 64.1096 27.28 57.5844 32.2445C55.1759 34.0767 51.9245 36.6958 50.359 38.0647C44.0821 43.5526 38.0753 48.3866 33.4997 51.6328C30.8503 53.5123 27.4018 56.1455 25.8363 57.4846C20.137 62.3594 12.8542 68.173 10.1721 69.9886C7.32044 71.9184 2.09931 74.3528 0.766333 74.3734C0.345068 74.3799 0 74.5695 0 74.7951C0 76.0041 2.88315 87.0731 4.25641 91.1351C5.82324 95.7712 5.86792 95.8426 7.21053 95.8426C10.0517 95.8426 14.0506 97.2991 21.8151 101.161C21.8151 101.161 29.8357 105.151 29.8357 105.151C29.8357 105.151 29.7284 107.467 29.7284 107.467C29.622 109.762 29.6474 109.811 32.6046 113.103C34.2458 114.929 36.4787 117.557 37.5669 118.942C41.0369 123.359 46.3959 131.837 46.6057 133.241C46.7174 133.987 47.3335 140.115 47.9755 146.859C48.617 153.602 49.1788 159.162 49.2239 159.214C49.3518 159.36 58.8456 157.06 69.1888 154.376C88.7294 149.305 99.4831 147.516 110.411 147.516C116.415 147.516 116.71 147.47 122.327 145.697C125.495 144.697 131.293 143.048 135.212 142.033C141.299 140.456 142.767 139.903 145.284 138.238C146.905 137.166 149.216 136.03 150.42 135.713C151.624 135.396 153.017 134.886 153.514 134.581C154.012 134.275 155.397 134.018 156.593 134.009C157.788 134 159.261 133.804 159.867 133.574C161.658 132.893 162.807 133.874 164.353 137.405C164.353 137.405 165.747 140.589 165.747 140.589C165.747 140.589 168.863 141.88 168.863 141.88C171.583 143.008 172.078 143.392 172.76 144.903C173.366 146.246 173.889 146.731 175.093 147.063C175.947 147.299 176.707 147.43 176.783 147.354C176.859 147.278 175.957 146.327 174.778 145.241C171.526 142.245 171.312 141.622 173.002 140.044C174.313 138.819 174.379 138.611 174.109 136.572C173.828 134.455 173.865 134.361 175.658 132.621C176.668 131.641 177.807 130.652 178.189 130.424C178.798 130.061 178.763 129.915 177.899 129.237C176.721 128.312 176.189 126.621 175.785 122.522C175.433 118.951 176.09 117.748 178.404 117.724C179.703 117.711 179.723 117.683 178.892 117.054C178.415 116.694 177.295 116.18 176.402 115.913C175.263 115.572 174.623 115.048 174.253 114.156C173.964 113.458 173.354 112.624 172.898 112.305C172.143 111.776 172.117 111.542 172.611 109.696C172.942 108.456 173.459 107.571 173.939 107.418C174.633 107.198 174.724 106.594 174.724 102.21C174.724 102.049 174.724 101.892 174.724 101.74C174.726 98.9348 174.727 97.6953 174.112 97.1482C173.624 96.7151 172.751 96.7162 171.187 96.7181C171.079 96.7183 170.968 96.7184 170.854 96.7184C167.843 96.7184 165.07 95.2203 160.927 91.354C159.442 89.9694 158.108 88.8361 157.961 88.8361C157.814 88.8361 156.794 87.8998 155.694 86.756C153.806 84.7916 150.201 78.5041 150.201 77.1742C150.201 76.837 148.822 75.5548 147.136 74.3248C145.45 73.0947 144.07 71.8943 144.07 71.6574C144.07 71.4205 143.479 70.4804 142.757 69.5682C141.164 67.5573 141.152 67.3668 142.538 66.0649C143.392 65.2627 143.633 64.6019 143.633 63.0609C143.633 61.6224 143.9 60.7939 144.618 60.0118C145.332 59.234 145.446 58.8824 145.033 58.7357C144.72 58.624 143.964 57.7417 143.354 56.7748C142.299 55.1037 142.162 55.0306 140.554 55.2876C137.936 55.7063 136.717 54.9294 136.371 52.6217C136.023 50.2981 134.704 49.1999 132.773 49.6242C131.902 49.8156 131.337 49.692 130.95 49.2248C130.641 48.853 130.007 48.5487 129.541 48.5487C128.521 48.5487 127.23 45.8253 126.796 42.7574C126.577 41.2028 125.677 39.4275 123.176 35.6142C119.279 29.6732 119.116 28.9108 119.661 19.2089C120.018 12.8694 120.57 11.0293 122.495 9.7681C123.081 9.38406 124.344 8.362 125.301 7.49713C125.301 7.49713 127.042 5.92502 127.042 5.92502C127.042 5.92502 124.073 2.9328 124.073 2.9328C122.44 1.2876 120.803 -0.0322571 120.435 0.000610352C120.068 0.0329895 118.368 0.207733 116.658 0.387726C116.658 0.387726 116.658 0.387726 116.658 0.387726C116.658 0.387726 116.658 0.387726 116.658 0.387726Z" fill="url(#gradient_1)" fill-rule="evenodd" transform="translate(18.83 317.044)" />
    <path id="states-map-of-tunisia-with-detailed-borders-free-vector 1 (Traced)#6" d="M54.134 3.44904C55.6233 2.95245 57.5939 1.98029 58.513 1.28839C59.4322 0.596497 60.2414 0.0171814 60.3115 0.000518799C60.3811 -0.015686 61.1694 0.342987 62.0631 0.798401C62.9564 1.25339 64.673 1.92163 65.8773 2.28333C67.0815 2.64505 69.4804 3.66318 71.2083 4.54642C71.2083 4.54642 74.3499 6.15225 74.3499 6.15225C74.3499 6.15225 78.0953 4.89938 78.0953 4.89938C80.7003 4.02841 82.0618 3.7709 82.5676 4.05377C82.9674 4.27756 84.8898 4.63885 86.8393 4.85693C88.7889 5.07501 90.5751 5.44458 90.8081 5.67755C91.041 5.91052 91.648 6.10144 92.1568 6.10144C92.6766 6.10144 93.5068 6.67685 94.0529 7.41516C94.5872 8.1377 95.3206 8.72888 95.6832 8.72888C96.2057 8.72888 96.2455 8.90976 95.8759 9.60077C95.5247 10.2572 95.5777 10.7984 96.0905 11.7903C96.503 12.5877 96.7412 14.0477 96.6939 15.491C96.5897 18.6786 97.5032 20.1145 99.6349 20.1145C101.721 20.1145 102.88 20.805 102.88 22.0469C102.88 23.5297 103.613 23.9142 106.922 24.1664C110.579 24.4453 113.737 26.2815 115.378 29.0828C116.383 30.7972 116.744 31.0258 120.182 32.121C122.227 32.7722 123.9 33.3515 123.9 33.4084C123.9 33.4649 123.473 35.3746 122.951 37.6513C122.429 39.928 121.97 42.6776 121.931 43.7614C121.834 46.4834 121.465 47.1149 119.192 48.447C116.166 50.2201 113.276 50.7302 110.107 50.0497C105.015 48.9558 101.229 49.5299 97.5697 51.9516C96.3904 52.7319 94.8551 53.1869 92.2785 53.5197C88.9767 53.9458 87.5303 53.9909 83.947 53.7781C82.1283 53.6699 77.3999 56.176 76.479 57.7359C75.7494 58.9712 75.7441 59.1586 76.401 60.429C77.4375 62.4333 77.0031 63.0293 74.5044 63.0293C73.1018 63.0293 71.6405 62.6562 70.2209 61.9363C67.7121 60.6633 66.6777 60.5739 65.6132 61.5373C65.001 62.0917 63.5997 62.2577 58.7915 62.3461C54.2422 62.4298 52.251 62.6501 50.7696 63.2329C48.4215 64.1565 47.8251 64.1814 44.4931 63.4965C42.5633 63.0998 40.2608 63.0849 35.0782 63.4352C31.3047 63.6901 27.4871 64.0229 26.5942 64.1753C26.5942 64.1753 24.9709 64.4516 24.9709 64.4516C24.9709 64.4516 25.2214 62.9075 25.2214 62.9075C25.436 61.5842 25.3085 61.2566 24.3267 60.6133C23.697 60.2008 23.1816 59.6044 23.1816 59.2887C23.1816 58.9725 22.6728 58.3134 22.0505 57.8239C20.4548 56.5688 14.3009 54.2711 12.5349 54.2711C10.8634 54.2711 9.95956 53.4715 8.97909 51.1248C8.4974 49.9722 7.2152 48.74 4.25497 46.5846C2.01991 44.9573 0.116344 43.5648 0.0239487 43.4895C-0.348709 43.186 3.74219 37.657 4.35175 37.6403C5.28711 37.6145 9.60792 35.5507 9.60048 35.1329C9.57683 33.7351 8.79516 32.6316 7.14339 31.6638C6.08979 31.0464 5.22756 30.4639 5.22756 30.3698C5.22756 30.2761 5.91815 28.8975 6.76199 27.3071C7.60583 25.7161 8.18517 24.2356 8.04985 24.0162C7.9141 23.7972 8.11071 23.6177 8.48599 23.6177C8.86128 23.6177 9.1687 23.316 9.1687 22.9473C9.1687 22.5781 9.46779 22.1617 9.83344 22.0215C10.1986 21.8814 10.4452 21.4501 10.3808 21.0638C10.2963 20.5568 10.9037 20.1758 12.5625 19.6958C14.8334 19.039 15.5949 17.9919 14.3574 17.2269C13.5526 16.7299 15.2582 15.7354 16.9156 15.7354C18.5652 15.7354 18.7623 15.3185 17.4889 14.5233C16.3845 13.8336 16.3586 13.1079 17.4385 13.1079C18.5793 13.1079 19.8185 11.098 19.4883 9.7825C19.2427 8.80463 18.5823 8.5051 17.1167 8.70612C16.7913 8.75079 17.2349 8.07819 18.102 7.21109C18.969 6.3436 19.6784 5.45816 19.6784 5.24313C19.6784 5.02814 20.2989 4.54208 21.0574 4.1637C22.3903 3.49896 22.5432 3.52701 25.6212 5.00757C27.3728 5.8501 29.1678 6.53934 29.6096 6.53934C30.0515 6.53934 31.4957 7.44495 32.8186 8.55197C35.8861 11.1185 39.1069 12.6604 41.4129 12.6657C43.3502 12.6705 43.7439 12.1467 43.757 9.54819C43.7618 8.66318 44.092 8.26294 45.1863 7.81671C45.9693 7.4975 47.6933 6.58707 49.018 5.79361C50.3426 5.00055 52.6447 3.94519 54.134 3.44904C54.134 3.44904 54.134 3.44904 54.134 3.44904C54.134 3.44904 54.134 3.44904 54.134 3.44904Z" fill="url(#gradient_1)" fill-rule="evenodd" transform="translate(42.915 260.992)" />
    <path id="states-map-of-tunisia-with-detailed-borders-free-vector 1 (Traced)#7" d="M25.7422 3.24374C26.6701 1.23462 26.9258 1.0126 28.8474 0.548859C29.9986 0.270813 30.9966 0.0246887 31.0645 0.00149536C31.1323 -0.0217285 31.8352 0.229645 32.6256 0.560242C33.6893 1.0043 34.2568 1.65985 34.8059 3.07822C36.1726 6.60861 41.9411 9.35037 44.4893 7.68063C45.9112 6.74875 47.5774 7.44894 48.2018 9.23999C49.146 11.948 52.4097 14.4103 55.0551 14.4103C55.761 14.4103 56.6652 13.9199 57.39 13.1439C58.4269 12.0338 58.6936 11.9419 59.5501 12.4003C60.0875 12.688 60.394 13.0559 60.232 13.2184C60.0695 13.3804 60.1387 13.7644 60.3856 14.0714C60.6326 14.3784 60.9742 16.7969 61.1446 19.4463C61.6849 27.8488 62.7306 31.222 67.3216 39.371C69.5759 43.3722 71.8474 45.944 76.6748 49.9605C78.9777 51.8768 81.5518 54.2761 82.3947 55.2924C85.2761 58.7668 91.3577 63.4559 92.9824 63.4559C94.134 63.4559 94.2873 64.1333 93.3318 64.9977C92.8558 65.4286 92.4665 65.9585 92.4665 66.1753C92.4665 66.392 91.6682 67.7452 90.6921 69.1824C89.716 70.6192 88.6326 72.6029 88.2845 73.5899C87.9364 74.5769 86.7146 76.6666 85.5704 78.233C84.4257 79.7999 83.0954 81.763 82.6137 82.5955C81.7689 84.0559 81.6349 84.1137 78.8236 84.2363C76.5001 84.3379 75.4185 84.6444 73.4878 85.7493C71.8697 86.6746 71.0201 87.4562 70.9282 88.1039C70.8463 88.6797 70.2144 89.3611 69.3723 89.782C67.199 90.8675 66.6923 91.4293 66.5461 92.9165C66.3648 94.7561 64.4507 95.8316 60.468 96.3317C58.5097 96.5778 56.9647 97.0424 56.258 97.5986C55.644 98.0812 54.9442 98.3544 54.7025 98.2051C53.9283 97.7265 47.1386 98.0715 45.0678 98.6951C43.2732 99.235 42.788 99.2114 40.3988 98.4678C38.9327 98.0115 37.4675 97.74 37.143 97.8648C35.807 98.3776 30.2841 90.0092 30.2841 87.4716C30.2841 87.0503 29.1237 85.9069 27.6387 84.8651C26.1836 83.8444 24.4228 82.2337 23.7252 81.2857C23.7252 81.2857 22.4579 79.5617 22.4579 79.5617C22.4579 79.5617 23.342 78.625 23.342 78.625C24.0287 77.898 24.1762 77.3003 24.0011 75.9581C23.7939 74.369 23.9328 74.0712 25.7102 72.2937C26.7739 71.2296 27.5582 70.2198 27.4531 70.049C27.3475 69.8782 26.4678 69.3807 25.4983 68.9437C24.5283 68.5062 23.6219 67.7911 23.483 67.3541C23.3442 66.9171 22.6099 66.0373 21.851 65.3984C20.6713 64.4061 20.1974 64.2748 18.5899 64.495C16.7415 64.7486 16.7091 64.7306 16.7091 63.4629C16.7091 61.3828 14.471 59.1876 11.9767 58.8211C7.93437 58.2277 7.97861 58.2737 7.07301 53.7068C6.68723 51.7607 5.82062 50.0568 3.28647 46.2624C3.28647 46.2624 0 41.3416 0 41.3416C0 41.3416 0.199677 33.6782 0.199677 33.6782C0.309158 29.4634 0.525909 25.7136 0.681366 25.3457C0.836823 24.9775 2.06078 23.8013 3.40164 22.7315C6.52785 20.2367 7.67952 18.6357 7.33488 17.2629C7.18951 16.6844 5.65511 14.8259 3.92494 13.133C3.92494 13.133 0.779449 10.0554 0.779449 10.0554C0.779449 10.0554 2.90724 9.11389 2.90724 9.11389C4.7149 8.31427 5.50095 8.21704 8.13493 8.46753C8.56641 8.50858 8.97507 8.5477 9.36255 8.58478C14.1703 9.04498 15.7187 9.19321 17.1579 8.86389C17.957 8.68103 18.7224 8.35092 19.9934 7.84528C24.2739 6.14224 24.4793 5.97803 25.7422 3.24374C25.7422 3.24374 25.7422 3.24374 25.7422 3.24374C25.7422 3.24374 25.7422 3.24374 25.7422 3.24374Z" fill="url(#gradient_1)" fill-rule="evenodd" transform="translate(141.005 305.221)" />
    <path id="states-map-of-tunisia-with-detailed-borders-free-vector 1 (Traced)#8" d="M71.6534 3.2095C72.5388 3.0444 74.1293 2.25006 75.1877 1.44385C77.5209 -0.33316 79.0448 -0.475494 79.427 1.04797C79.5746 1.63651 79.5497 2.35422 79.371 2.64282C79.1928 2.9314 78.9016 4.64886 78.7246 6.45871C78.4194 9.57355 78.3056 9.84204 76.5991 11.4658C75.6076 12.409 74.7936 13.4127 74.7901 13.6956C74.787 13.9785 74.6662 14.6498 74.5221 15.1876C74.3146 15.9622 74.5015 16.2569 75.4215 16.6068C76.399 16.9782 76.511 17.1826 76.1292 17.8964C75.3011 19.4435 76.3539 20.9789 78.2513 20.9911C78.8267 20.9946 79.5164 21.2797 79.784 21.6248C80.503 22.5523 84.1354 22.9775 84.907 22.2243C85.5468 21.6003 88.4663 20.1219 89.0597 20.1219C89.2453 20.1219 89.7082 19.8543 90.0883 19.5276C91.113 18.647 94.6276 17.8649 94.9823 18.439C95.1781 18.7552 95.3681 18.7399 95.5844 18.39C95.7583 18.1084 96.3831 17.695 96.973 17.4708C97.5624 17.2466 98.0007 16.8152 97.9469 16.5122C97.893 16.2096 98.2259 15.2024 98.6865 14.2745C98.6865 14.2745 99.5242 12.5872 99.5242 12.5872C99.5242 12.5872 98.2933 10.3828 98.2933 10.3828C97.1902 8.40656 97.1499 8.2016 97.9053 8.39911C98.3686 8.52042 99.2081 8.37329 99.7708 8.07202C101.747 7.01447 104.191 8.44949 107.064 12.3552C108.459 14.2522 108.599 14.7094 108.6 17.3911C108.601 19.1265 108.313 21.0108 107.901 21.969C107.116 23.7946 106.973 26.4974 107.639 26.9094C107.88 27.0583 108.077 27.8619 108.077 28.6952C108.077 30.1153 108.15 30.192 109.237 29.9192C110.083 29.7068 110.309 29.7711 110.071 30.1556C109.892 30.4459 109.222 30.6224 108.582 30.548C107.541 30.4267 107.43 30.5462 107.513 31.6971C107.565 32.4038 107.706 33.2411 107.828 33.5582C108.133 34.3516 110.472 34.2851 111.155 33.4636C111.648 32.868 111.828 32.9017 112.741 33.7587C114.087 35.0234 114.04 35.2196 112.383 35.28C111.621 35.3076 110.776 35.6338 110.505 36.0052C110.15 36.4904 109.801 36.5627 109.263 36.2618C108.343 35.7473 108.309 36.2417 109.043 39.4209C109.399 40.9658 109.826 41.7751 110.357 41.9139C110.789 42.0269 111.142 42.2799 111.142 42.4765C111.142 42.6732 111.536 42.9591 112.017 43.1115C112.498 43.2644 113.007 43.9182 113.147 44.5645C113.895 48.003 115.122 49.3526 116.961 48.7601C119.441 47.9609 129.119 49.8676 130.939 51.5141C131.757 52.255 131.822 52.2445 132.57 51.2518C133.087 50.5678 133.454 50.3865 133.658 50.7158C133.827 50.9895 134.355 51.2132 134.832 51.2132C135.309 51.2132 136.469 51.6061 137.41 52.086C138.404 52.5927 139.229 52.7831 139.379 52.5405C139.54 52.28 140.038 52.2747 140.701 52.527C141.841 52.9605 142.517 52.4648 141.977 51.5907C141.755 51.2312 142.144 51.1813 143.371 51.4112C144.307 51.5868 145.206 51.8127 145.369 51.9134C145.761 52.1556 144.969 54.9692 143.937 56.9963C143.065 58.7107 142.137 66.4283 142.757 66.8119C142.947 66.9293 142.722 67.7714 142.257 68.6831C141.792 69.5948 141.045 71.8224 140.597 73.6336C139.832 76.7191 139.826 77.0598 140.491 79.0483C141.111 80.9002 141.127 81.4786 140.616 83.5985C140.285 84.9731 140.071 87.9269 140.121 90.4058C140.17 92.8143 140.061 95.6003 139.878 96.5965C139.306 99.7144 140.173 101.699 143.8 105.578C146.551 108.52 147.804 109.681 147.943 110.964C148.05 111.946 147.503 112.999 146.476 114.978C146.304 115.309 146.119 115.666 145.921 116.053C142.974 121.814 139.877 125.281 136.881 126.172C135.851 126.479 133.924 127.439 132.6 128.305C131.275 129.172 128.319 130.543 126.031 131.354C123.743 132.164 120.509 133.383 118.846 134.063C117.182 134.743 115.732 135.21 115.624 135.102C115.516 134.994 116.725 132.46 118.311 129.47C118.311 129.47 121.194 124.035 121.194 124.035C121.194 124.035 128.429 119.546 128.429 119.546C132.409 117.077 135.665 114.982 135.665 114.892C135.665 114.802 135.355 113.953 134.977 113.006C134.194 111.053 133.082 110.566 130.858 111.203C130.061 111.432 129.191 111.488 128.925 111.329C128.658 111.17 123.843 107.599 118.225 103.392C109.236 96.6627 108.049 95.6344 108.338 94.8269C108.518 94.322 108.78 90.8284 108.919 87.0629C108.919 87.0629 109.172 80.2162 109.172 80.2162C109.172 80.2162 110.851 77.781 110.851 77.781C111.979 76.1446 112.442 75.0682 112.262 74.5011C112.115 74.0369 110.768 72.5187 109.269 71.127C109.269 71.127 104.903 67.0746 104.903 67.0746C103.397 65.6777 102.855 64.512 102.197 61.2553C102.173 61.1365 102.155 61.0313 102.124 60.9301C101.844 60.0112 100.492 59.4192 83.7733 51.8705C79.9197 50.1312 75.6335 48.3791 74.2489 47.9775C72.8642 47.576 71.7309 47.1639 71.7309 47.0615C71.7309 46.4247 72.901 44.3206 73.5627 43.7688C74.2361 43.2066 74.283 42.8703 73.8858 41.4348C73.5675 40.2835 73.2299 39.8312 72.8095 39.9923C72.4723 40.1215 72.0808 40.0396 71.9389 39.8097C71.7957 39.5781 70.965 39.8789 70.0717 40.4859C68.2351 41.7335 67.3615 41.8306 65.6878 40.9736C65.0375 40.6408 63.4996 40.2318 62.27 40.0654C59.6356 39.709 58.4247 40.1337 53.9958 42.967C51.1139 44.8101 47.2113 46.1651 43.3499 46.6625C41.5208 46.8981 40.1295 47.8046 38.6783 49.7073C36.9893 51.9218 36.1963 52.2147 33.9818 51.4431C29.4267 49.8566 25.0052 51.4344 24.0554 54.9854C23.6521 56.494 20.9831 57.6527 16.9386 58.0757C16.9386 58.0757 14.3655 58.3446 14.3655 58.3446L14.3655 47.7323C14.3655 47.7323 12.9974 47.0251 12.9974 47.0251C12.2451 46.6363 10.2255 46.2158 8.50893 46.091C6.07591 45.9146 5.14714 45.6448 4.29366 44.8662C3.69154 44.3166 2.78159 43.7417 2.27142 43.588C1.76128 43.4343 0.983978 42.911 0.544327 42.4249C-0.169464 41.6362 -0.17514 41.5723 0.491348 41.828C0.9021 41.9857 2.17201 41.8114 3.31319 41.44C5.09457 40.8611 6.54141 40.7179 10.9717 40.6807C11.3934 40.6772 12.4273 40.7004 13.2698 40.7328C14.1242 40.7652 15.476 40.393 16.3264 39.8912C17.5954 39.1428 18.0771 39.0701 19.1938 39.4594C20.2557 39.8294 20.6919 39.7913 21.2826 39.2759C21.6929 38.9177 22.7185 38.3961 23.5614 38.1172C24.4044 37.8383 25.8823 37.0662 26.8457 36.4019C28.1945 35.4723 28.6293 34.8636 28.737 33.7557C28.8482 32.6084 29.1425 32.2238 30.1878 31.8595C30.9331 31.5998 31.9587 30.6746 32.5639 29.716C34.0589 27.3474 35.839 26.5245 38.8049 26.8306C41.7533 27.1349 42.9098 26.4759 44.3597 23.6663C44.9303 22.5597 46.2983 20.4722 47.3988 19.0271C48.4992 17.582 49.7442 15.5072 50.165 14.4168C50.5858 13.3265 51.8172 11.027 52.901 9.30731C54.5948 6.61945 55.348 5.87677 57.3895 4.88226C57.57 4.79425 57.718 5.00226 57.718 5.34515C57.718 6.03836 59.9395 9.13303 60.4549 9.15845C60.6353 9.16721 60.7833 8.47968 60.7833 7.63058C60.7833 5.77734 61.3075 5.51068 66.3149 4.8157C68.2097 4.55298 69.8238 4.151 69.9018 3.92328C69.9793 3.69556 70.7675 3.37415 71.6534 3.2095C71.6534 3.2095 71.6534 3.2095 71.6534 3.2095C71.6534 3.2095 71.6534 3.2095 71.6534 3.2095Z" fill="url(#gradient_1)" fill-rule="evenodd" transform="translate(183.044 365.214)" />
    <path id="states-map-of-tunisia-with-detailed-borders-free-vector 1 (Traced)#9" d="M158.644 6.69C162.725 6.22101 166.79 4.75143 170.553 2.38455C174.741 -0.249908 175.743 -0.487701 177.916 0.635956C178.678 1.02963 180.281 1.46976 181.494 1.64185C181.494 1.64185 183.701 1.95453 183.701 1.95453C183.701 1.95453 181.844 2.78699 181.844 2.78699C180.823 3.2446 179.986 3.74249 179.983 3.89355C179.973 4.50137 188.412 9.18042 188.694 8.72366C188.988 8.24857 193.113 9.97565 206.77 16.2911C206.77 16.2911 213.199 19.2641 213.199 19.2641C213.199 19.2641 213.484 20.9496 213.484 20.9496C213.871 23.2451 215.745 25.6939 219.394 28.6742C222.884 31.5255 223.352 32.4013 222.113 33.7623C220.345 35.7066 220.106 36.7585 220.004 43.0687C219.941 46.9757 219.665 50.0423 219.252 51.4327C218.894 52.64 218.729 53.8245 218.886 54.0649C219.043 54.3049 224.438 58.4602 230.876 63.2987C242.174 71.7901 242.629 72.0817 243.984 71.6929C244.756 71.4717 245.441 71.3439 245.506 71.4091C245.571 71.4748 242.698 73.3517 239.121 75.5806C239.121 75.5806 232.618 79.633 232.618 79.633L228.741 87.3112L224.864 94.9895C224.864 94.9895 222.2 96.1622 222.2 96.1622C220.735 96.8068 218.863 97.8425 218.04 98.4638C217.217 99.0848 215.46 100.087 214.135 100.689C212.81 101.292 209.464 103.504 206.698 105.604C202.301 108.942 201.6 109.653 201.12 111.259C200.818 112.269 199.732 114.557 198.705 116.344C196.927 119.437 196.701 119.65 193.978 120.8C191.414 121.883 190.902 121.961 189.012 121.558C187.014 121.132 186.821 121.176 185.303 122.405C184.22 123.282 183.621 124.183 183.453 125.186C183.316 126.003 182.922 127.119 182.577 127.667C182.015 128.559 182.047 128.836 182.879 130.295C184.068 132.378 183.758 133.217 180.928 135.586C179.111 137.107 178.562 137.924 177.786 140.255C176.74 143.398 175.822 144.271 172.347 145.435C169.796 146.289 168.621 146.332 166.359 145.655C164.966 145.237 164.342 145.281 162.686 145.914C159.303 147.206 155.709 150.229 154.416 152.872C152.742 156.294 148.855 162.36 146.463 165.286C141.348 171.541 141.446 174.956 147.165 189.768C149.109 194.805 151.095 200.391 151.577 202.182C152.059 203.974 152.769 206.043 153.155 206.78C153.68 207.784 153.875 209.555 153.929 213.814C153.976 217.465 154.271 220.607 154.752 222.572C155.326 224.92 155.4 226.048 155.068 227.389C154.829 228.353 154.418 230.094 154.153 231.26C153.446 234.374 148.598 243.841 147.092 245.047C146.393 245.607 145.288 246.986 144.637 248.112C143.233 250.539 136.618 259.751 134.052 262.852C133.059 264.052 132.247 265.187 132.247 265.375C132.247 266.271 130.333 269.604 128.962 271.095C128.12 272.012 127.43 273.033 127.43 273.365C127.43 274.32 122.588 278.843 121.56 278.848C119.553 278.858 112.958 281.312 109.914 283.181C102.88 287.5 97.6526 290.034 97.6526 289.125C97.6526 288.947 96.7768 284.837 95.7061 279.991C92.4972 265.466 90.9965 258.566 84.0754 226.513C67.9877 152.008 58.7694 112.439 57.4995 112.439C56.6 112.439 40.8529 101.622 23.6468 89.1837C4.11586 75.0661 0 72.0195 0 71.6819C0 71.477 0.751984 71.1428 1.65494 70.9112C2.55834 70.6795 6.54852 69.675 10.5225 68.6783C14.4965 67.6816 20.8023 66.0754 24.5354 65.1089C39.6856 61.1866 50.6844 59.4752 60.7449 59.4752C66.9167 59.4752 67.2539 59.4262 72.6379 57.7438C78.4957 55.9133 91.2247 52.4687 92.1303 52.4687C92.425 52.4687 94.2344 51.5044 96.1512 50.3256C100.114 47.8882 104.981 46.1357 108.841 45.7561C108.841 45.7561 111.477 45.4968 111.477 45.4968C111.477 45.4968 112.463 48.0397 112.463 48.0397C113.646 51.0902 114.6 52.0142 117.923 53.3284C119.93 54.1218 120.594 54.6386 121.172 55.8573C122.057 57.7214 123.6 58.7107 126.83 59.4858C129.688 60.1715 130.652 59.8036 130.872 57.9456C130.99 56.9424 130.525 56.2273 128.272 53.9545C128.272 53.9545 125.528 51.1856 125.528 51.1856C125.528 51.1856 126.376 50.2486 126.376 50.2486C126.964 49.5987 127.245 48.6016 127.291 46.9931C127.344 45.1408 127.599 44.4038 128.559 43.3261C129.22 42.5843 130.087 41.8736 130.485 41.7475C131.354 41.4716 132.384 38.8512 132.008 37.872C131.861 37.4889 131.365 37.0562 130.905 36.9099C129.755 36.5452 129.358 35.6155 129.018 32.4875C128.691 29.4892 128.878 29.2597 131.648 29.2597C132.833 29.2597 133.262 29.0241 133.657 28.1566C134.1 27.1845 134.01 26.8972 132.895 25.7333C132.199 25.0072 130.614 23.9164 129.373 23.309C127.848 22.5628 126.851 21.7111 126.296 20.6798C125.248 18.7338 125.768 18.3283 129.327 18.3186C132.693 18.3099 137.572 17.1691 139.321 15.9824C140.095 15.4574 140.949 14.3652 141.22 13.5555C142.129 10.8361 143.545 10.3965 147.812 11.5079C151.286 12.413 152.485 12.0373 155.039 9.24213C156.659 7.46991 157.589 6.81131 158.644 6.69C158.644 6.69 158.644 6.69 158.644 6.69C158.644 6.69 158.644 6.69 158.644 6.69Z" fill="url(#gradient_1)" fill-rule="evenodd" transform="translate(68.313 407.691)" />
    <path id="states-map-of-tunisia-with-detailed-borders-free-vector 1 (Traced)#10" d="M38.6854 2.50351C39.6089 1.69736 41.304 0.779922 42.4526 0.465073C45.1217 -0.266235 50.7352 -0.10289 51.5409 0.729568C51.8671 1.06676 52.2687 2.45319 52.4325 3.81026C52.7219 6.20427 52.6838 6.33084 51.1542 8.02379C48.5583 10.8973 49.2677 13.0172 53.6674 15.5348C55.514 16.591 56.1928 17.3078 57.0213 19.077C57.5927 20.297 58.271 21.4701 58.5285 21.6838C58.8197 21.9256 59.7315 21.5709 60.9445 20.7437C60.9445 20.7437 62.8923 19.4155 62.8923 19.4155C62.8923 19.4155 64.1044 20.889 64.1044 20.889C64.7709 21.6992 65.9357 23.1013 66.6937 24.0047C67.689 25.191 68.0127 25.9539 67.8598 26.7526C67.6728 27.7326 67.9706 28.0387 70.4737 29.4387C72.3212 30.4717 74.0063 31.0673 75.3419 31.1588C79.9232 31.4737 82.2695 32.0815 84.928 33.6413C84.928 33.6413 87.6548 35.241 87.6548 35.241L90.0673 34.1742L92.4792 33.1075C92.4792 33.1075 92.682 34.0845 92.682 34.0845C93.2815 36.9768 93.8056 41.07 93.8056 42.8614C93.8056 44.7948 93.8932 44.941 95.5573 45.7901C96.5351 46.2889 97.3089 47.004 97.3089 47.4082C97.3089 48.2578 95.4009 53.9076 94.5864 55.4701C94.2773 56.0625 93.2859 57.4481 92.3825 58.549C91.4795 59.6494 90.7403 60.848 90.7403 61.2123C90.7403 61.5767 90.3309 62.3951 89.8304 63.031C89.3303 63.6672 88.1729 65.9106 87.259 68.0165C86.3446 70.1224 84.1923 74.17 82.4758 77.0107C80.7592 79.8518 79.3548 82.6141 79.3548 83.1493C79.3548 83.6848 79.8194 84.8089 80.3878 85.6475C80.9558 86.4861 81.5583 87.6089 81.7261 88.1423C82.0291 89.1044 84.4993 89.9714 85.3821 89.4258C85.5976 89.2927 87.0711 88.9765 88.6567 88.723C88.6567 88.723 91.5395 88.2627 91.5395 88.2627C91.5395 88.2627 94.6915 90.4338 94.6915 90.4338C96.4252 91.6285 98.0459 92.6729 98.2933 92.7552C98.5644 92.8458 98.3975 93.6801 97.8738 94.8558C97.1294 96.5269 96.7286 96.8886 95.0769 97.3812C94.0163 97.6974 92.4468 98.515 91.5885 99.1972C90.5358 100.035 89.6806 100.375 88.9611 100.243C87.5401 99.9842 85.9584 101.511 83.9773 105.054C81.8509 108.856 81.2829 109.273 77.5353 109.79C74.1884 110.251 72.0786 111.231 71.1437 112.76C70.6905 113.5 70.7399 114.034 71.4301 115.85C71.889 117.057 72.086 118.045 71.8684 118.045C71.6508 118.045 71.4725 117.837 71.4725 117.583C71.4725 117.328 70.4041 116.631 69.0978 116.033C66.8036 114.983 66.6328 114.967 64.0352 115.567C61.5759 116.135 61.371 116.128 61.625 115.474C61.7774 115.082 62.1036 113.677 62.3497 112.352C62.5958 111.027 63.0827 109.258 63.4326 108.419C64.5256 105.797 63.2658 104.575 57.8502 103.004C55.8184 102.415 55.1904 101.984 54.2156 100.511C52.4806 97.8892 48.4361 95.4304 45.25 95.0608C43.1244 94.8138 42.5963 94.5826 42.2065 93.7273C41.5917 92.3782 39.8313 91.2488 37.8257 90.9169C37.8257 90.9169 36.2213 90.651 36.2213 90.651C36.2213 90.651 36.3675 88.4041 36.3675 88.4041C36.4477 87.1684 36.2865 85.7325 36.0084 85.2136C35.5832 84.4183 35.6809 84.0369 36.6285 82.7941C37.9501 81.0618 38.0513 79.2436 36.9027 77.8668C35.807 76.5531 35.3393 76.624 34.6847 78.2044C33.8982 80.1036 33.5728 80.1356 32.5569 78.4138C31.9092 77.3159 31.3439 76.8815 30.564 76.8815C29.9649 76.8815 29.0221 76.7007 28.469 76.4791C26.068 75.5187 25.6095 75.4255 23.741 75.5161C22.475 75.577 21.1727 75.302 20.0989 74.7458C18.4467 73.8906 18.4104 73.8906 17.0012 74.7218C16.2169 75.1846 14.6921 75.8288 13.6132 76.1537C11.7459 76.7156 11.5261 76.6836 9.0607 75.4907C7.6362 74.801 6.27737 74.0439 6.04091 73.8074C5.80488 73.5714 5.10903 73.373 4.49509 73.3669C3.88071 73.3603 2.61825 73.0139 1.68902 72.5962C1.68902 72.5962 0 71.8373 0 71.8373C0 71.8373 2.34588 70.2455 2.34588 70.2455C3.63638 69.3701 5.15063 68.5162 5.71071 68.3485C7.96242 67.6736 13.1087 65.0839 14.6405 63.8547C15.536 63.1361 16.8462 62.3093 17.5521 62.0168C19.3558 61.2697 19.6825 59.469 18.2475 58.182C17.6563 57.6517 17.1724 56.9471 17.1724 56.6165C17.1724 56.2859 18.0592 54.8732 19.143 53.4772C20.2268 52.0816 21.1136 50.7753 21.1136 50.5743C21.1136 50.3733 21.8528 50.0711 22.7557 49.903C23.6591 49.7348 25.0876 49.2452 25.9305 48.8152C26.7735 48.3848 29.1382 47.7213 31.1854 47.3408C36.2502 46.3993 36.3032 46.3761 36.8413 44.8311C37.5262 42.8671 37.4264 41.5162 36.5602 41.0318C35.7242 40.5637 35.4996 38.7083 35.5736 32.8719C35.6113 29.8709 35.7483 29.2675 36.5295 28.6628C37.9856 27.5351 37.2932 26.0922 34.4937 24.4216C33.1629 23.6273 31.5791 22.3284 30.9739 21.5354C30.3687 20.7419 29.1837 19.7212 28.3399 19.2666C27.4965 18.8125 26.8063 18.2809 26.8063 18.0851C26.8063 16.5113 33.2593 6.84009 35.4072 5.19533C36.2869 4.52138 37.7623 3.31017 38.6854 2.50351C38.6854 2.50351 38.6854 2.50351 38.6854 2.50351C38.6854 2.50351 38.6854 2.50351 38.6854 2.50351Z" fill="url(#gradient_1)" fill-rule="evenodd" transform="translate(105.973 187.862)" />
    <path id="states-map-of-tunisia-with-detailed-borders-free-vector 1 (Traced)#11" d="M69.4924 3.26402C69.763 2.36018 69.9846 1.21899 69.9846 0.727661C69.9846 0.0383911 70.1926 -0.111366 70.8942 0.0716782C71.6933 0.280998 71.7691 0.528862 71.516 2.11102C70.6988 7.21702 70.7129 7.49332 71.8063 7.78584C72.3699 7.93693 73.3635 8.06303 74.0147 8.06612C75.0074 8.07137 75.2719 8.33672 75.6542 9.71439C76.4354 12.5266 76.2129 15.5828 75.0555 17.9488C74.4727 19.1399 73.3814 21.4884 72.6309 23.1673C71.8799 24.8458 70.6818 27.1295 69.9684 28.2413C69.2547 29.3532 68.6709 30.5889 68.6709 30.9874C68.6709 31.3855 69.3716 32.6292 70.2277 33.7511C71.0838 34.8726 71.8979 36.3579 72.0367 37.0524C72.1755 37.7465 72.7829 38.7034 73.3867 39.178C74.358 39.9422 76.036 43.4231 78.1192 48.9946C78.4747 49.9462 79.0182 51.03 79.3264 51.4031C79.6347 51.7766 80.1182 52.6244 80.4011 53.2878C80.8959 54.4487 80.8451 54.5267 79.0335 55.3784C77.9987 55.8649 76.5686 56.7644 75.7606 57.4387C75.7606 57.4387 74.2919 58.6649 74.2919 58.6649L75.691 61.2485L77.0906 63.8317C77.0906 63.8317 75.7659 65.0697 75.7659 65.0697C75.0372 65.7506 74.4386 66.6427 74.436 67.0521C74.4329 67.4611 73.7472 68.2388 72.9121 68.7796C71.9794 69.3835 71.3028 70.2286 71.1587 70.9691C71.0295 71.6326 70.73 73.0155 70.4931 74.0424C69.7837 77.1165 69.9514 78.7057 71.0983 79.7833C72.098 80.7222 72.1265 80.9307 71.9159 85.7047C71.9159 85.7047 71.6973 90.653 71.6973 90.653C71.6973 90.653 73.2856 91.8643 73.2856 91.8643C74.7797 93.0037 74.8568 93.1828 74.591 94.8867C74.2718 96.9326 73.8658 97.3386 72.1309 97.3482C71.1811 97.3535 70.0127 98.2652 66.7845 101.519C64.5127 103.81 62.0052 106.618 61.2126 107.759C61.2126 107.759 59.7715 109.835 59.7715 109.835C59.7715 109.835 59.6466 108.302 59.6466 108.302C59.5779 107.459 59.2333 105.178 58.8803 103.232C58.5274 101.287 58.2388 98.9671 58.2388 98.0778C58.2388 96.7899 58.0221 96.3616 57.1751 95.9754C56.2945 95.5742 55.9127 95.6469 54.958 96.3979C54.324 96.8967 53.1341 97.5264 52.3139 97.7971C50.9538 98.2459 50.5947 98.1553 48.2318 96.7706C45.7117 95.2936 44.352 94.9835 38.7433 94.606C36.8546 94.4791 33.9702 93.0427 33.8804 92.1848C33.8502 91.8971 33.8011 91.4767 33.7709 91.2508C33.7407 91.0244 32.86 89.9419 31.9084 88.7832C26.4727 82.1634 25.9008 81.7947 23.9587 83.6553C23.9587 83.6553 22.7374 84.825 22.7374 84.825C22.7374 84.825 21.802 82.8991 21.802 82.8991C21.0681 81.3892 20.3018 80.6605 18.2498 79.5237C16.8104 78.7267 15.5269 77.7975 15.3968 77.4594C15.2672 77.1209 15.8698 76.0156 16.7364 75.0032C18.488 72.9568 18.6093 72.0876 17.7317 67.8675C17.2321 65.4651 17.0394 65.1726 15.2755 64.1413C13.178 62.9143 12.6963 62.0941 12.6499 59.6695C12.6306 58.6539 12.2374 57.6043 11.5844 56.8231C11.0152 56.1421 10.1245 54.7474 9.60468 53.724C9.08533 52.7006 8.37985 51.8629 8.03697 51.8629C7.69453 51.8629 7.15636 51.499 6.84193 51.0541C6.52708 50.6092 4.95238 49.1299 3.34219 47.7667C0.369263 45.2492 -0.53894 43.8264 0.295258 42.9922C0.619751 42.6677 1.51395 42.8617 3.29446 43.6421C6.61028 45.0959 9.27538 45.5005 9.97559 44.6567C10.2637 44.3094 11.2227 43.7944 12.1069 43.512C12.9905 43.2295 14.3283 42.6283 15.0793 42.176C15.8303 41.7232 17.1029 41.3531 17.9073 41.3531C19.003 41.3531 19.7864 40.9467 21.0305 39.7316C21.9439 38.8395 22.691 37.9786 22.691 37.8183C22.691 37.6576 21.9728 37.4102 21.0957 37.2674C19.3717 36.9881 17.4361 35.4755 17.4361 34.4079C17.4361 34.044 17.8631 33.2917 18.3846 32.7364C18.9955 32.0866 19.4544 30.8337 19.6734 29.2201C19.9637 27.0804 19.8779 26.4718 19.0849 25.0613C18.5743 24.1522 18.2406 23.3429 18.3435 23.2623C18.4464 23.1817 19.7417 22.1986 21.2214 21.0776C22.7015 19.957 24.9414 17.8038 26.1986 16.2931C27.4563 14.7823 28.9552 13.3818 29.5293 13.1813C30.1034 12.9803 30.5733 12.6558 30.5733 12.4601C30.5733 12.2639 31.9207 10.909 33.5677 9.44855C33.5677 9.44855 36.5625 6.79398 36.5625 6.79398C36.5625 6.79398 38.8965 7.54017 38.8965 7.54017C40.7576 8.13528 41.2691 8.1712 41.4202 7.71709C41.8694 6.36967 43.4809 5.3826 44.8051 5.64359C45.5277 5.78591 46.1999 6.14457 46.2988 6.44016C46.3978 6.73573 47.1217 7.62247 47.9077 8.41116C49.1947 9.70255 49.5117 9.81683 51.1004 9.56287C53.8106 9.12933 55.9249 9.67934 56.5134 10.9712C57.0831 12.2223 59.651 13.4694 60.864 13.0841C61.8457 12.7727 62.9782 10.7058 62.9782 9.22436C62.9782 7.46223 63.4432 6.75851 64.6076 6.75851C66.5926 6.75851 68.9507 5.07126 69.4924 3.26402C69.4924 3.26402 69.4924 3.26402 69.4924 3.26402C69.4924 3.26402 69.4924 3.26402 69.4924 3.26402Z" fill="url(#gradient_1)" fill-rule="evenodd" transform="translate(142.757 121.738)" />
    <path id="states-map-of-tunisia-with-detailed-borders-free-vector 1 (Traced)#12" d="M42.0838 0.399605C44.4292 0.374641 46.4956 0.206932 46.6761 0.0265121C46.8565 -0.153908 47.8615 0.605858 48.9098 1.71552C50.7188 3.63004 50.9802 3.75309 54.0605 4.1437C57.6434 4.59825 59.7646 4.15772 59.339 3.04806C59.1428 2.53659 59.4966 2.42536 61.0976 2.49499C61.0976 2.49499 63.1014 2.58213 63.1014 2.58213C63.1014 2.58213 62.9004 5.65973 62.9004 5.65973C62.6683 9.21203 61.6209 11.5855 59.3919 13.6108C57.3329 15.4811 56.3235 15.9624 54.4598 15.9624C53.147 15.9624 51.5491 16.4533 50.8051 17.0856C50.4556 17.3825 53.4609 21.2172 54.0429 21.2172C54.4668 21.2172 54.681 21.6915 54.6853 22.6404C54.6954 24.7862 55.2546 25.4356 56.574 24.8343C58.1347 24.1236 59.3425 24.6022 59.9822 26.1853C60.6483 27.8327 60.9644 28.0849 63.1084 28.6787C64.1007 28.9533 64.7506 29.4008 64.7506 29.8094C64.7506 30.1812 64.1594 31.8325 63.4369 33.4786C62.7143 35.1247 62.0869 36.7112 62.0869 36.9171C62.0869 37.5135 55.6444 43.1839 54.9665 43.1839C54.6293 43.1839 53.7395 44.0383 52.9898 45.0823C50.9308 47.9497 47.1311 51.565 44.6307 53.0368C42.0401 54.5616 41.8211 55.4515 43.4151 57.9764C44.1766 59.1824 44.3531 59.8725 44.0859 60.5955C43.8863 61.1355 43.835 61.8694 43.9721 62.2267C44.1091 62.5845 43.7089 63.4861 43.0823 64.2306C42.4561 64.975 41.9433 65.9713 41.9433 66.4442C41.9433 67.5622 43.5105 70.6266 44.2305 70.9161C44.5379 71.0396 44.286 71.1565 43.6704 71.1754C43.0551 71.1942 41.9288 71.5712 41.1677 72.1326C40.4067 72.694 38.6003 73.512 37.1539 73.9499C37.1539 73.9499 34.5243 74.746 34.5243 74.746C34.5243 74.746 31.9389 73.586 31.9389 73.586C28.5377 72.0595 26.5317 72.0577 25.3349 73.5795C23.405 76.0326 24.3772 78.072 29.8326 83.0146C32.2787 85.2304 34.3583 87.2518 34.4542 87.5071C34.5501 87.7624 35.1632 88.7595 35.8161 89.7229C37.1544 91.6965 38.0402 95.868 37.051 95.5343C36.7309 95.4262 35.4842 95.5996 34.2799 95.9193C31.3254 96.7031 31.1319 96.6755 30.8188 95.4266C30.669 94.8306 29.7117 93.4727 28.691 92.4086C27.6707 91.3444 26.6302 90.1284 26.3788 89.7058C25.99 89.0533 25.7706 89.0192 24.9092 89.4803C24.3098 89.8008 23.2908 89.9081 22.4106 89.743C21.0115 89.4807 20.9602 89.387 20.9602 87.7199C20.9602 84.6068 18.0827 82.938 13.4501 83.3636C13.4501 83.3636 10.5385 83.6316 10.5385 83.6316C10.5385 83.6316 9.78264 82.2277 9.78264 82.2277C8.89939 80.5877 8.07832 80.1673 6.94415 80.7743C5.62606 81.4798 4.87067 81.2818 4.58823 80.1564C4.4424 79.5766 4.19413 78.7656 4.03649 78.354C3.79433 77.7229 3.88496 77.6778 4.61188 78.0671C5.08657 78.3211 5.85508 78.474 6.32057 78.407C7.49372 78.2379 7.67458 75.2019 6.67616 72.426C6.05564 70.7002 6.00966 70.0898 6.43005 69.1671C6.71425 68.5431 6.94724 66.9925 6.94724 65.7226C6.94724 64.3418 7.28355 62.7216 7.78276 61.6947C8.62178 59.9698 8.60164 59.0528 7.7359 59.5879C7.47097 59.7517 7.35272 59.6133 7.46045 59.2665C7.56423 58.9319 8.50965 58.2405 9.5615 57.7299C12.1035 56.4954 12.64 55.6503 12.64 52.8796C12.64 50.5828 12.6711 50.5285 14.9959 48.7296C14.9959 48.7296 17.3514 46.907 17.3514 46.907L17.1863 41.6158L17.0212 36.325C17.0212 36.325 15.4995 35.7229 15.4995 35.7229C14.6627 35.3914 13.8552 34.7345 13.7054 34.2625C13.5005 33.6161 13.1777 33.4685 12.3974 33.6643C11.6394 33.8548 11.2356 33.6897 10.8932 33.0499C10.6357 32.5686 9.93854 32.0532 9.34343 31.9039C7.96841 31.5588 7.20122 29.2414 8.11118 28.1826C8.87795 27.2901 8.76979 23.5123 7.9404 22.2301C7.59971 21.7038 6.74492 21.1463 6.04164 20.9917C5.0441 20.7728 4.42403 20.1063 3.22723 17.9662C2.38295 16.4563 1.69238 14.981 1.69238 14.6867C1.69238 14.3929 2.20734 13.4772 2.83661 12.6522C4.31366 10.7154 4.07676 9.37801 1.48524 5.02303C-0.663559 1.41205 -0.646912 1.35336 2.63562 0.927719C4.14332 0.732414 4.81287 0.83139 5.20742 1.30652C5.50082 1.66034 6.40642 1.94936 7.21961 1.94936C8.23905 1.94936 8.69884 2.15255 8.69884 2.60271C8.69884 2.9618 9.09296 3.50173 9.57465 3.80257C10.0563 4.10342 10.4505 4.77867 10.4505 5.30328C10.4505 6.80749 10.9168 7.64214 11.7576 7.64214C12.1837 7.64214 12.7779 7.93773 13.0779 8.299C13.8972 9.28604 15.2105 9.09949 18.0752 7.58915C20.3839 6.37222 20.9251 6.25529 23.0717 6.50752C24.9801 6.73173 25.827 7.10527 27.1617 8.31083C29.1065 10.0681 29.1485 10.0756 31.3455 9.08286C34.226 7.78053 34.5352 7.33517 34.5352 4.48659C34.5352 1.92484 34.5479 1.89899 36.1773 1.17469C37.3128 0.669785 39.1345 0.430695 42.0838 0.399605C42.0838 0.399605 42.0838 0.399605 42.0838 0.399605C42.0838 0.399605 42.0838 0.399605 42.0838 0.399605Z" fill="url(#gradient_1)" fill-rule="evenodd" transform="translate(114.731 88.895)" />
    <path id="states-map-of-tunisia-with-detailed-borders-free-vector 1 (Traced)#13" d="M37.1605 2.69343C38.7865 2.7035 49.0483 0.742111 50.81 0.0839386C51.773 -0.275581 52.4368 0.444778 54.1543 3.71419C55.1111 5.53588 54.9876 6.55051 53.6617 7.74993C52.3431 8.94367 52.6089 10.7859 54.6439 14.5537C56.1454 17.3331 56.7476 18.1261 58.0053 18.6214C59.3124 19.1363 59.5677 19.4608 59.6514 20.7141C59.7061 21.5295 59.4692 22.6265 59.125 23.1515C58.5772 23.9879 58.5965 24.4508 59.2822 26.8908C59.9763 29.361 60.1992 29.6908 61.2554 29.816C62.0073 29.9049 62.6248 30.3485 62.9309 31.0203C63.2426 31.7052 63.7799 32.0835 64.4399 32.0835C65.003 32.0835 65.4641 32.2648 65.4641 32.4868C65.4641 32.7084 66.0312 33.0141 66.724 33.1665C67.9742 33.441 67.9856 33.4739 68.1839 37.2491C68.1839 37.2491 68.3836 41.0549 68.3836 41.0549C68.3836 41.0549 66.0483 43.2637 66.0483 43.2637C63.7633 45.4239 63.7125 45.5259 63.7125 47.9401C63.7125 50.3486 63.6775 50.4191 62.2521 50.8898C58.9157 51.9907 57.5376 55.0521 57.9304 60.4874C58.0981 62.8018 57.9817 63.449 57.2109 64.4912C57.2109 64.4912 56.3241 65.6946 56.3241 65.6946C56.3241 65.6946 57.4574 67.7221 57.4574 67.7221C58.0806 68.837 58.5163 69.8232 58.4256 69.9138C58.1169 70.2225 49.9802 67.9292 47.7723 66.9115C46.5619 66.3536 44.6851 65.2177 43.6012 64.3874C41.8667 63.0584 41.2024 62.5398 40.5066 62.4933C40.0655 62.4638 39.6117 62.624 38.8646 62.8878C38.8646 62.8878 38.7957 62.9121 38.7957 62.9121C37.1772 63.4832 36.815 63.4827 35.7054 62.9091C33.8859 61.9684 31.9679 62.0919 30.9191 63.2178C30.4282 63.7446 30.0262 64.3174 30.0262 64.4903C30.0262 64.6629 29.0541 65.5028 27.866 66.3567C27.866 66.3567 25.7054 67.9086 25.7054 67.9086C25.7054 67.9086 25.8915 70.886 25.8915 70.886C26.04 73.2682 25.9248 74.0433 25.3148 74.761C23.9534 76.3629 23.0609 76.3992 21.3772 74.9208C20.1016 73.8007 19.5879 73.6102 18.4682 73.8405C17.7202 73.9947 15.867 74.2399 14.3501 74.3857C11.8063 74.6305 11.4407 74.8048 9.64266 76.6287C7.93571 78.3597 7.6931 78.4854 7.6931 77.6381C7.6931 76.4977 5.86222 74.5206 4.80599 74.5206C3.90084 74.5206 0.387112 70.727 0.0455475 69.3804C-0.0910797 68.8418 0.0902061 66.9947 0.44841 65.2764C0.853474 63.3334 0.999741 61.192 0.834652 59.6147C0.614384 57.5062 0.723866 56.8283 1.4845 55.5978C1.4845 55.5978 2.39928 54.1177 2.39928 54.1177C2.39928 54.1177 1.32422 53.3102 1.32422 53.3102C-0.0788269 52.2566 -0.0367775 51.7595 1.56683 50.4357C2.84726 49.3786 2.89981 49.1925 3.09249 45.0201C3.20196 42.6436 3.47127 40.476 3.69022 40.2032C3.90961 39.9304 4.22446 39.072 4.39043 38.2956C4.5564 37.5192 5.2553 36.4105 5.94325 35.8316C7.14004 34.8244 7.17987 34.672 6.85976 32.3125C6.63687 30.6704 6.18582 29.4854 5.5097 28.7659C5.5097 28.7659 4.49421 27.6852 4.49421 27.6852C4.49421 27.6852 5.65598 26.0093 5.65598 26.0093C6.29444 25.0875 6.81729 24.114 6.81729 23.846C6.81729 23.5776 7.06383 23.2763 7.36467 23.1761C7.73383 23.0526 7.91774 21.9486 7.92956 19.7823C7.94226 17.4071 8.11304 16.4941 8.58641 16.2742C8.93805 16.1109 9.66631 15.7496 10.2049 15.4711C10.7436 15.193 11.6798 14.9653 12.285 14.9653C13.7988 14.9653 13.6438 14.5095 11.6653 13.1423C10.2093 12.136 9.99474 11.7765 10.0976 10.5149C10.0976 10.5149 10.2172 9.05358 10.2172 9.05358C10.2172 9.05358 12.849 9.05358 12.849 9.05358C14.7188 9.05358 15.7216 8.83637 16.3106 8.30388C16.7669 7.89181 18.1183 7.12592 19.3138 6.60218C20.5088 6.07844 21.9797 5.31123 22.5818 4.89741C23.184 4.48402 24.6304 4.01941 25.7965 3.86571C26.9622 3.71156 28.8031 3.19308 29.887 2.71357C31.5046 1.99803 32.1851 1.91701 33.6792 2.26208C34.6807 2.4933 36.2471 2.6873 37.1605 2.69343C37.1605 2.69343 37.1605 2.69343 37.1605 2.69343C37.1605 2.69343 37.1605 2.69343 37.1605 2.69343Z" fill="url(#gradient_1)" fill-rule="evenodd" transform="translate(61.307 93.712)" />
    <path id="states-map-of-tunisia-with-detailed-borders-free-vector 1 (Traced)#14" d="M53.152 4.27754C53.3784 4.27754 54.7425 3.3032 56.1827 2.11253C58.9678 -0.189983 59.6553 -0.422508 60.895 0.518116C61.6403 1.08345 61.6351 1.21219 60.7728 3.39909C59.8975 5.62059 59.8935 5.73577 60.6498 7.28201C61.1131 8.22964 62.094 9.2307 63.0696 9.75137C64.0821 10.2917 64.7113 10.946 64.7118 11.4596C64.7127 11.9177 63.6534 13.3352 62.3585 14.6099C60.1002 16.8323 59.9907 17.0478 59.6899 19.8569C59.3102 23.4 59.4447 23.5297 63.5089 23.5388C65.8622 23.5441 66.6407 23.7215 67.3296 24.4103C68.5356 25.6163 68.8285 27.1643 68.2071 29.0473C67.5393 31.07 67.5621 33.7057 68.2579 35.0173C68.5522 35.5721 69.4512 36.8915 70.2561 37.9499C72.0743 40.3405 72.1732 42.477 70.6204 45.8125C70.0209 47.1009 69.53 48.9164 69.53 49.8465C69.53 51.4348 69.4302 51.5631 67.8879 51.9533C66.9849 52.1819 65.0634 52.5055 63.6188 52.6723C60.4851 53.0341 58.6814 53.881 58.1677 55.2328C57.7241 56.3998 56.4827 56.8145 49.2708 58.2053C44.3672 59.1507 43.995 59.1652 41.5261 58.5035C38.97 57.8186 38.9 57.8247 36.7323 58.8972C35.3254 59.5939 33.6836 60.0121 32.1751 60.0585C30.5452 60.1084 29.5691 60.3791 29.0143 60.9339C28.5724 61.3753 26.9601 62.3343 25.4309 63.0647C23.9017 63.7952 22.546 64.5624 22.4177 64.7695C22.2894 64.9771 21.4836 65.1465 20.6266 65.1465C19.1435 65.1465 19.0839 65.0887 19.3808 63.9423C19.5525 63.2802 19.7233 62.0484 19.7605 61.2054C19.8218 59.808 19.7119 59.66 18.5142 59.5304C17.7816 59.4507 16.5568 58.7728 15.7449 57.9977C15.7449 57.9977 14.2893 56.6074 14.2893 56.6074C14.2893 56.6074 13.4779 57.6019 13.4779 57.6019C13.0312 58.1492 12.5578 58.4221 12.426 58.2084C12.0617 57.6198 8.59481 57.269 7.72688 57.7337C7.24081 57.9938 6.86421 57.9828 6.69167 57.7034C6.54235 57.4617 5.62931 57.2642 4.66329 57.2642C3.69684 57.2642 2.61873 56.977 2.26797 56.6258C1.91677 56.275 1.35976 56.0915 1.02958 56.2181C0.251858 56.5163 -0.224155 55.7276 0.106461 54.6867C0.277679 54.1472 0.946793 53.7763 2.07396 53.5959C3.0137 53.4457 4.05243 53.0529 4.38217 52.7227C5.18091 51.924 7.58805 50.6956 8.35482 50.6956C9.2788 50.6956 12.6025 48.1514 12.6025 47.4442C12.6025 46.8088 15.6131 44.7002 16.2332 44.9021C16.918 45.125 18.262 44.0964 18.8238 42.9193C19.295 41.9314 19.7259 41.6949 21.2542 41.5841C22.8604 41.4676 23.1122 41.313 23.1122 40.4451C23.1122 39.025 23.9635 36.7579 25.1568 34.9989C26.3995 33.168 26.4289 32.3233 25.3254 30.1604C24.6633 28.8629 24.5901 28.3716 24.9969 27.9591C25.4042 27.5461 25.3499 27.3013 24.7543 26.8612C24.3331 26.5499 23.988 26.193 23.988 26.0682C23.988 25.4963 26.6846 24.8048 27.8862 25.0689C28.6171 25.2292 29.9939 25.4162 30.9454 25.484C32.4093 25.5883 32.8166 25.417 33.589 24.3717C34.0913 23.6926 34.7521 23.2328 35.0574 23.3497C35.3626 23.4666 36.0019 23.259 36.4779 22.8881C36.9543 22.5172 38.2374 21.6581 39.3291 20.9789C40.8175 20.0531 41.4442 19.3205 41.8335 18.0523C42.3344 16.4194 42.3046 16.3208 40.9629 15.2007C40.1703 14.539 39.2354 14.1287 38.787 14.246C38.1581 14.4107 38.0009 14.1852 38.0009 13.118C38.0009 11.8126 38.7519 10.6688 39.8489 10.3031C40.2863 10.1573 40.2802 9.85909 39.8191 8.84665C39.2866 7.67788 39.3208 7.51936 40.2364 6.91067C40.7851 6.54633 42.0901 6.03047 43.1367 5.76423C44.7385 5.35697 45.2644 5.40164 46.4661 6.04536C47.7101 6.71229 48.1038 6.7377 49.5445 6.24243C50.4527 5.9302 51.5436 5.36005 51.9679 4.976C52.3922 4.59196 52.9251 4.27754 53.152 4.27754C53.152 4.27754 53.152 4.27754 53.152 4.27754C53.152 4.27754 53.152 4.27754 53.152 4.27754Z" fill="url(#gradient_1)" fill-rule="evenodd" transform="translate(53.424 34.595)" />
    <path id="states-map-of-tunisia-with-detailed-borders-free-vector 1 (Traced)#15" d="M12.3767 2.93111C12.9928 2.19936 13.4964 1.2215 13.4964 0.758194C13.4964 -0.358032 13.5932 -0.333054 16.1834 1.44878C18.6519 3.14655 21.1427 3.46095 23.1303 2.32457C23.7324 1.98039 24.6897 1.6918 25.2572 1.68304C26.0722 1.67079 26.2224 1.82932 25.971 2.43407C24.906 4.99715 24.5614 6.80612 24.9862 7.60617C26.4453 10.354 28.9527 11.945 34.7348 13.7899C36.6615 14.4047 38.7635 15.2801 39.4055 15.7355C40.0474 16.1909 41.1807 16.6853 41.9234 16.8337C42.9271 17.0347 43.2721 17.343 43.2673 18.0345C43.2559 19.5821 42.7283 19.9569 40.0991 20.2849C38.4569 20.4895 37.8051 20.5659 37.6874 20.8577C37.6104 21.0486 37.762 21.3316 38.0144 21.803C38.0144 21.803 38.0344 21.8403 38.0344 21.8403C38.3882 22.5011 38.3448 22.6872 37.8373 22.6872C37.4795 22.6872 37.0193 22.3877 36.8144 22.0216C36.4951 21.4515 36.0634 21.5452 33.7928 22.6802C30.3351 24.4078 25.146 28.7593 24.9542 30.0914C24.8241 30.9948 24.6332 31.0819 23.2656 30.8599C21.6051 30.5902 20.8133 29.8168 20.0089 27.6781C20.0089 27.6781 19.4979 26.3197 19.4979 26.3197C19.4979 26.3197 13.8502 26.0495 13.8502 26.0495C9.83202 25.8572 7.85753 25.5752 7.00493 25.0717C5.45825 24.1577 2.95998 24.7095 2.33553 26.102C1.79121 27.3155 1.45799 27.3137 0.60321 26.0928C-0.345291 24.7393 -0.296234 24.6171 1.6288 23.535C4.21243 22.0834 4.71033 20.7788 3.65672 18.2254C3.41061 17.629 3.67642 17.4311 5.02998 17.202C7.91357 16.7142 8.1741 16.5557 8.69872 14.9652C8.97984 14.1135 9.77335 12.7748 10.4613 11.9909C11.6165 10.675 11.6769 10.4359 11.2473 8.8792C10.6242 6.62222 11.0183 4.54565 12.3767 2.93111C12.3767 2.93111 12.3767 2.93111 12.3767 2.93111C12.3767 2.93111 12.3767 2.93111 12.3767 2.93111Z" fill="url(#gradient_1)" fill-rule="evenodd" transform="translate(241.285 159.398)" />
    <path id="states-map-of-tunisia-with-detailed-borders-free-vector 1 (Traced)#16" d="M47.7034 0.485761C48.8258 0.528238 49.875 0.432777 50.0344 0.272941C50.5437 -0.236344 51.19 -0.0419106 52.227 0.931993C53.3773 2.01275 57.7275 2.62844 58.249 1.78416C58.7184 1.02483 60.1662 1.21137 60.4162 2.0631C60.5401 2.48481 60.7722 3.56862 60.9325 4.47159C61.2162 6.07345 61.1909 6.11374 59.8907 6.11374C58.979 6.11374 58.4763 6.36947 58.3007 6.92255C58.1518 7.39242 57.2839 7.95951 56.2312 8.2748C55.2341 8.57389 54.1397 9.09632 53.7995 9.43657C53.4597 9.77682 52.5655 10.0549 51.8127 10.0549C51.8127 10.0549 50.4447 10.0549 50.4447 10.0549C50.4447 10.0549 51.8175 11.4781 51.8175 11.4781C52.8965 12.5965 53.098 13.0655 52.7577 13.6676C52.4323 14.2435 52.4814 14.434 52.9556 14.434C53.3029 14.434 53.7088 14.9209 53.8582 15.516C54.0079 16.1111 54.5216 16.8079 55.0007 17.064C55.4793 17.3206 55.8712 17.9175 55.8712 18.3904C55.8712 19.8136 57.3338 20.8515 59.8014 21.1786C61.7978 21.4435 62.325 21.3446 63.6983 20.4468C64.5715 19.8758 65.6409 19.2772 66.0744 19.1161C67.2309 18.6873 69.141 14.2465 68.9006 12.5453C68.7924 11.7776 68.5709 10.8484 68.4084 10.4801C68.1658 9.93053 68.4171 9.83988 69.8158 9.97344C70.7521 10.0628 72.7699 9.81493 74.3004 9.423C77.0741 8.71228 77.0846 8.71315 77.8527 9.71114C78.2761 10.2616 78.6273 10.8598 78.6326 11.0402C78.6378 11.2206 79.261 11.3686 80.0172 11.3686C81.7255 11.3686 84.4782 12.7156 86.7592 14.6674C86.7592 14.6674 88.495 16.1527 88.495 16.1527C88.495 16.1527 86.9624 16.2386 86.9624 16.2386C86.1194 16.2859 85.0952 16.2972 84.6862 16.264C84.2399 16.2281 83.5485 16.9055 82.956 17.9595C82.3442 19.0486 81.743 19.628 81.373 19.4861C80.6767 19.219 78.612 20.2025 77.7905 21.1926C77.4774 21.5696 76.8647 21.8784 76.4286 21.8784C75.3527 21.8784 74.9997 23.239 75.548 25.2748C76.2657 27.9399 74.698 31.8666 72.2847 33.4479C71.6055 33.8928 71.1978 34.572 71.1978 35.2586C71.1978 35.8629 70.911 37.0444 70.5598 37.8839C70.209 38.7238 69.9016 39.5549 69.8771 39.7309C69.8522 39.9074 69.4493 40.1929 68.982 40.3659C68.3015 40.6177 68.0125 40.3931 67.5295 39.237C66.761 37.3973 64.8675 36.4996 60.9071 36.0972C59.2212 35.9255 57.308 35.4758 56.6555 35.0975C55.5577 34.4612 55.4018 34.4704 54.5754 35.2183C54.0837 35.6632 53.6817 36.3665 53.6817 36.7816C53.6817 37.1963 53.4167 37.756 53.0923 38.0249C52.7682 38.2937 52.1385 39.3228 51.6927 40.3112C50.9268 42.0098 50.7994 42.0952 49.3731 41.864C48.267 41.6844 47.5725 41.8482 46.7724 42.4775C46.1725 42.9496 45.2249 43.3358 44.6674 43.3358C44.1095 43.3358 43.4641 43.6743 43.2324 44.0886C42.9189 44.6486 42.3509 44.8076 41.0114 44.7113C40.8721 44.7012 40.7458 44.6893 40.629 44.6782C40.3395 44.6508 40.1084 44.6289 39.8827 44.6548C38.898 44.7674 38.0172 45.7883 32.844 51.2216C28.9103 55.3528 24.6644 59.1004 23.9169 59.1004C23.165 59.1004 21.8723 57.6816 21.5929 56.5496C21.4392 55.9265 21.8167 54.4183 22.5668 52.6601C23.2403 51.0806 23.6901 49.3982 23.5653 48.9217C23.4405 48.4453 22.6097 47.2892 21.7186 46.3525C20.3813 44.9469 19.8032 44.6495 18.4054 44.6495C17.005 44.6495 16.3867 44.3303 14.8343 42.8068C13.4322 41.4305 12.9566 40.6243 12.9566 39.6223C12.9566 38.7868 12.4758 37.6973 11.6827 36.7352C10.8332 35.7044 10.3121 34.4677 10.1185 33.0227C9.77039 30.4276 9.15208 28.6484 8.03326 27.0238C7.02299 25.5568 5.57266 25.4631 2.51479 26.6686C2.51479 26.6686 0.360733 27.5177 0.360733 27.5177C0.360733 27.5177 0.0835495 25.7836 0.0835495 25.7836C-0.103439 24.6157 0.0226593 23.6313 0.469757 22.7669C0.834518 22.0614 1.13319 20.9855 1.13319 20.3759C1.13319 19.5588 1.42088 19.1953 2.22794 18.993C2.83006 18.8419 3.32272 18.4772 3.32272 18.1829C3.32272 17.8882 3.80222 17.3907 4.38811 17.0772C4.97447 16.7632 6.06837 15.5182 6.81937 14.3105C7.84712 12.6565 8.30869 12.2383 8.68745 12.6171C9.41483 13.3445 12.9553 13.2297 14.4893 12.4292C15.2118 12.0522 16.7672 11.5604 17.9461 11.3366C19.1249 11.1124 21.3468 10.1355 22.8835 9.16463C25.4877 7.52029 25.8275 7.42001 27.8817 7.69239C29.9968 7.97308 30.2109 7.89952 33.1707 5.87727C35.6462 4.18564 36.4029 3.86158 37.0015 4.23556C38.0087 4.86439 40.443 4.00347 43.3839 1.97815C45.2779 0.673625 46.007 0.421826 47.7034 0.485761C47.7034 0.485761 47.7034 0.485761 47.7034 0.485761C47.7034 0.485761 47.7034 0.485761 47.7034 0.485761ZM64.0639 9.42606C63.3918 9.27586 62.9525 8.97414 63.0883 8.75475C63.2271 8.53011 64.0477 8.6514 64.9673 9.03238C66.8319 9.80529 67.4564 10.2747 66.1619 9.93097C65.6802 9.8031 64.7361 9.57582 64.0639 9.42606C64.0639 9.42606 64.0639 9.42606 64.0639 9.42606C64.0639 9.42606 64.0639 9.42606 64.0639 9.42606Z" fill="url(#gradient_1)" fill-rule="evenodd" transform="translate(127.868 0)" />
    <path id="states-map-of-tunisia-with-detailed-borders-free-vector 1 (Traced)#17" d="M13.0957 6.1419C14.1629 5.59014 14.7449 4.72834 16.8113 0.641796C17.0802 0.110176 17.498 -0.113602 17.9061 0.0554314C18.2691 0.205631 20.0899 0.490273 21.9523 0.687767C23.8147 0.885262 25.5051 1.14976 25.7078 1.275C25.911 1.40068 26.4369 2.30102 26.8766 3.27624C27.5799 4.83562 27.8522 5.04888 29.1423 5.04888C31.1882 5.04888 31.0883 6.50843 28.9662 7.62597C28.4246 7.91148 27.981 8.43215 27.981 8.78292C27.981 9.13368 27.5868 9.66661 27.1052 9.96745C25.8488 10.7522 26.0113 11.0902 27.8715 11.5645C31.979 12.612 32.36 12.6225 32.36 11.6862C32.36 11.0635 32.8294 10.6545 33.9811 10.2744C35.0303 9.92848 35.6539 9.89476 35.7489 10.1798C35.8295 10.422 36.2617 11.3385 36.7093 12.2161C37.5807 13.9253 37.2693 14.5655 35.6942 14.3058C33.8033 13.994 31.8888 14.713 31.4356 15.905C31.0647 16.8807 31.136 17.1999 31.8546 17.7814C32.3306 18.1672 32.9599 19.2826 33.2529 20.26C33.5905 21.3863 34.1664 22.2109 34.8245 22.5108C35.3956 22.7714 35.8632 23.3148 35.8632 23.7186C35.8632 24.6395 33.9509 27.1802 32.5833 28.0766C31.6506 28.6875 31.4212 28.6858 30.2038 28.0561C28.9855 27.4263 28.732 27.4242 27.5505 28.035C26.1216 28.7742 25.4205 29.9228 24.2942 33.3696C23.0423 37.2004 22.8089 37.1233 19.1874 31.6789C19.1874 31.6789 15.9386 26.7944 15.9386 26.7944C15.9386 26.7944 15.8821 23.4756 15.8821 23.4756C15.8199 19.8396 15.6772 19.7161 13.0239 21.0128C11.9405 21.5422 11.7006 21.4546 9.50359 19.7306C8.2039 18.7107 6.4155 17.7434 5.51781 17.5748C3.72678 17.2389 2.7612 16.1231 2.31059 13.8696C2.13499 12.9925 1.81706 12.5253 1.48338 12.6531C1.18561 12.7679 0.675018 12.3632 0.349228 11.7545C-0.188522 10.75 -0.148682 10.5713 0.774857 9.82339C1.77766 9.01107 1.80479 9.01326 2.62938 9.97972C2.62938 9.97972 3.46664 10.9606 3.46664 10.9606C3.46664 10.9606 4.7589 9.46474 4.7589 9.46474C6.17026 7.83179 8.65714 6.67395 10.6229 6.73439C11.3117 6.75541 12.4249 6.48872 13.0957 6.1419C13.0957 6.1419 13.0957 6.1419 13.0957 6.1419C13.0957 6.1419 13.0957 6.1419 13.0957 6.1419Z" fill="url(#gradient_1)" fill-rule="evenodd" transform="translate(166.842 38.098)" />
    <path id="states-map-of-tunisia-with-detailed-borders-free-vector 1 (Traced)#18" d="M14.5908 2.91531C16.7164 2.6495 17.0479 2.46251 17.7722 1.1177C18.4045 -0.0567627 18.6598 -0.242001 18.9445 0.266411C19.3566 1.00253 21.6954 1.15099 22.118 0.467415C22.2712 0.219124 23.2898 1.01304 24.3933 2.24093C25.4925 3.46313 27.1525 4.8513 28.0826 5.32599C29.7852 6.19436 30.2021 6.83151 29.2711 7.14155C28.9948 7.23395 28.4943 8.38344 28.1597 9.69629C27.8247 11.0087 27.0659 12.8177 26.473 13.7158C25.0283 15.9045 25.0488 17.375 26.5298 17.7463C27.1626 17.9053 27.5751 18.2652 27.4626 18.5604C27.3518 18.8512 26.7922 20.485 26.2189 22.1906C25.2564 25.0528 25.0077 25.3922 22.9868 26.5942C22.9868 26.5942 20.7972 27.897 20.7972 27.897C20.7972 27.897 20.9448 25.8533 20.9448 25.8533C21.0771 24.022 20.986 23.7811 20.069 23.5355C19.5063 23.3848 18.6515 23.2508 18.1698 23.2377C16.8732 23.2026 14.8085 21.1896 12.9627 18.1623C11.3981 15.5958 11.1826 15.4263 7.82475 14.1117C5.89709 13.3572 3.53459 12.7397 2.57515 12.7397C1.05124 12.7397 0.760468 12.5733 0.278336 11.4269C-0.255905 10.157 -0.198059 10.0361 2.06021 7.7047C4.26944 5.42365 4.50894 5.29533 6.5592 5.29533C8.33665 5.29533 8.99005 5.06193 10.2092 3.99169C11.0259 3.2744 11.8119 2.80584 11.956 2.94991C12.1001 3.09398 13.2859 3.07821 14.5908 2.91531C14.5908 2.91531 14.5908 2.91531 14.5908 2.91531C14.5908 2.91531 14.5908 2.91531 14.5908 2.91531Z" fill="url(#gradient_1)" fill-rule="evenodd" transform="translate(200.56 59.117)" />
    <path id="states-map-of-tunisia-with-detailed-borders-free-vector 1 (Traced)#19" d="M53.5229 0.957634C53.8938 0.957634 54.319 0.760574 54.4679 0.519726C55.3367 -0.885952 56.7643 0.844658 55.966 2.33573C55.105 3.9446 56.2882 8.21988 58.1905 10.3726C58.6161 10.8543 59.1955 12.6278 59.4775 14.3138C59.7678 16.0479 60.4378 18.0618 61.0207 18.9512C61.6101 19.8507 61.9083 20.7532 61.7183 21.061C61.5352 21.3571 60.3927 22.0595 59.1793 22.6213C55.8867 24.147 53.7747 26.3102 50.0481 31.9728C48.1975 34.7846 46.3351 37.479 45.909 37.9607C44.6325 39.4041 39.4745 49.4365 38.4932 52.3849C37.9909 53.8948 37.2968 55.5037 36.9513 55.9604C36.6054 56.4172 36.3163 57.0955 36.3089 57.4682C36.2988 57.9569 35.1887 58.4079 32.3165 59.0902C30.1288 59.61 27.4466 60.586 26.3562 61.2595C22.5692 63.598 22.2022 63.739 21.3269 63.1925C20.2417 62.5146 18.4494 62.9875 16.5808 64.4444C16.5808 64.4444 15.0403 65.6465 15.0403 65.6465C15.0403 65.6465 13.5738 63.7363 13.5738 63.7363C12.7676 62.6862 11.7543 61.8266 11.3221 61.8266C10.8899 61.8266 10.0162 62.445 9.37996 63.2008C9.37996 63.2008 8.22389 64.5749 8.22389 64.5749C8.22389 64.5749 6.96887 63.3724 6.96887 63.3724C5.79091 62.2435 5.55399 62.1888 3.09209 62.4743C0.679688 62.7546 0.446716 62.7055 0.179596 61.8634C-0.365158 60.1473 0.422195 53.8011 1.29932 52.8377C2.28197 51.7583 1.97148 50.0032 0.79834 50.0032C0.0232391 50.0032 0.0237122 49.944 0.79924 48.1421C2.13704 45.0338 2.28551 43.2655 1.28488 42.3599C0.511978 41.6606 0.482635 41.4535 1.01381 40.4257C1.34093 39.7925 1.83398 38.4367 2.10944 37.4133C2.38487 36.39 2.77815 35.5522 2.98354 35.5522C3.1889 35.5522 3.48097 35.0596 3.63203 34.4575C3.82516 33.6868 4.20482 33.3627 4.91379 33.3627C5.4673 33.3627 6.95615 33.0553 8.22214 32.6791C9.91901 32.1751 10.6766 32.1226 11.1062 32.479C11.9154 33.1512 13.8755 32.5723 14.1947 31.5673C14.3401 31.1097 15.1143 30.0399 15.9153 29.1903C17.416 27.5994 18.7787 24.2508 18.7787 22.1549C18.7787 20.2058 20.6577 18.1696 22.821 17.7746C23.8492 17.5871 24.8875 17.4886 25.1283 17.5556C25.3692 17.623 26.2559 17.7513 27.0989 17.8416C29.1032 18.0548 33.4529 15.9708 35.3473 13.889C36.121 13.0386 36.9342 12.3432 37.1545 12.3432C37.3752 12.3432 38.466 11.555 39.5791 10.5916C40.6923 9.62818 41.985 8.83995 42.4523 8.83995C43.0093 8.83995 43.3013 8.53867 43.3013 7.96414C43.3013 7.47762 43.5934 7.08833 43.9582 7.08833C44.3195 7.08833 44.615 6.89127 44.615 6.65042C44.615 6.40957 45.0092 6.21251 45.4909 6.21251C46.2484 6.21251 46.3667 5.92043 46.3667 4.05364C46.3667 2.15137 46.484 1.87636 47.3519 1.74192C47.8936 1.65784 48.6595 1.77565 49.0532 2.00424C49.545 2.28931 50.2504 2.19034 51.3088 1.6885C52.1558 1.2865 53.152 0.957634 53.5229 0.957634C53.5229 0.957634 53.5229 0.957634 53.5229 0.957634C53.5229 0.957634 53.5229 0.957634 53.5229 0.957634Z" fill="url(#gradient_1)" fill-rule="evenodd" transform="translate(229.024 32.843)" />
    <path id="states-map-of-tunisia-with-detailed-borders-free-vector 1 (Traced)#20" d="M6.71834 4.50709C6.71834 2.53563 6.92195 1.78331 7.67032 0.986317C8.7988 -0.214422 10.557 -0.32346 12.5425 0.684601C15.0171 1.94095 15.0863 2.07715 14.1435 3.83578C13.0697 5.8392 13.0588 7.52076 14.1054 9.79699C14.5555 10.7762 15.1795 12.2672 15.4922 13.1102C16.0203 14.5351 18.3631 17.7704 20.9918 20.7052C21.7117 21.5088 22.0008 22.2077 21.8076 22.6758C21.6426 23.0748 21.4087 23.7461 21.2874 24.1673C21.0531 24.9818 20.2934 25.2328 20.2934 24.4958C20.2934 23.7281 17.8306 24.0259 17.0507 24.8877C16.1022 25.9356 13.9232 26.2767 12.9419 25.531C11.4841 24.4235 9.66937 24.8089 8.22166 26.5329C8.22166 26.5329 6.87903 28.1326 6.87903 28.1326C6.87903 28.1326 5.28772 24.7813 5.28772 24.7813C4.41235 22.9386 3.57465 21.4304 3.42664 21.4304C3.27818 21.4304 2.44656 21.9721 1.57822 22.6342C1.57822 22.6342 0 23.838 0 23.838C0 23.838 0.357773 22.5247 0.357773 22.5247C0.554825 21.8026 0.73613 20.7981 0.761093 20.2932C0.786057 19.7883 1.0751 19.0517 1.40309 18.6567C1.73108 18.2617 1.87512 17.6149 1.72362 17.2195C1.33081 16.1957 2.32706 13.5748 3.74806 11.8937C5.83467 9.42521 6.71834 7.22824 6.71834 4.50709C6.71834 4.50709 6.71834 4.50709 6.71834 4.50709C6.71834 4.50709 6.71834 4.50709 6.71834 4.50709Z" fill="url(#gradient_1)" fill-rule="evenodd" transform="translate(199.684 22.333)" />
    <path id="states-map-of-tunisia-with-detailed-borders-free-vector 1 (Traced)#21" d="M7.26964 2.32875C7.15404 2.02835 7.35152 1.36535 7.7084 0.856068C8.46422 -0.222935 8.60262 -0.239567 10.0591 0.568371C10.7041 0.92614 11.6907 1.0689 12.4601 0.91563C12.4601 0.91563 13.7668 0.655518 13.7668 0.655518C13.7668 0.655518 12.5696 2.07783 12.5696 2.07783C11.8322 2.95425 11.4858 3.35943 11.4501 3.79036C11.4188 4.16785 11.6259 4.5651 12.0176 5.3162C12.0176 5.3162 12.0402 5.3595 12.0402 5.3595C12.4041 6.05752 12.6086 6.72227 12.4939 6.837C12.3796 6.95129 12.7207 7.39796 13.2527 7.82973C13.2527 7.82973 14.2192 8.61402 14.2192 8.61402C14.2192 8.61402 12.9987 8.92143 12.9987 8.92143C11.833 9.21526 10.1804 9.04261 8.74411 8.48603C8.28432 8.30824 7.92213 8.63755 7.57927 9.54577C6.78098 11.6617 3.05263 12.3822 3.05263 10.4204C3.05263 9.98423 2.46629 9.16841 1.74944 8.60746C0.97435 8.00052 0.32666 6.99201 0.151932 6.11795C-0.136642 4.67461 -0.119141 4.65403 1.15343 4.93342C2.14308 5.15062 2.64099 5.00568 3.26237 4.31904C3.70992 3.82464 4.8419 3.2974 5.77771 3.14763C6.88429 2.97072 7.40627 2.68433 7.26964 2.32875C7.26964 2.32875 7.26964 2.32875 7.26964 2.32875C7.26964 2.32875 7.26964 2.32875 7.26964 2.32875Z" fill="url(#gradient_1)" fill-rule="evenodd" transform="translate(202.312 50.359)" />
    <path id="states-map-of-tunisia-with-detailed-borders-free-vector 1 (Traced)#22" d="M1.16586 2.82782C0.976227 0.453918 0.990265 0.420197 2.28735 0.14389C4.05692 -0.232727 6.32132 0.140839 8.30328 1.13708C10.4061 2.19418 14.9506 2.70435 15.8221 1.98093C16.3423 1.54916 16.8691 1.85651 18.7263 3.67514C19.9739 4.89645 21.5148 6.0105 22.1507 6.14975C22.7865 6.289 23.4867 6.4458 23.7065 6.49835C23.9264 6.55045 24.1624 6.97653 24.2311 7.44507C24.3796 8.45752 22.5947 10.4408 20.9053 11.1406C20.2432 11.4152 19.4645 12.0821 19.1751 12.6229C18.8856 13.1642 18.0217 13.7917 17.2554 14.0176C16.3432 14.2861 15.6355 14.904 15.2055 15.8074C14.7803 16.7003 14.0547 17.3401 13.1491 17.6203C11.7995 18.0381 11.6699 17.9619 9.50616 15.4746C8.04095 13.7895 6.92911 12.8953 6.29984 12.8953C5.0137 12.8953 2.06839 14.9346 2.06839 15.8253C2.06839 16.4559 1.97375 16.4489 1.21182 15.7592C-0.0506592 14.6167 -0.416718 11.441 0.544922 9.97357C1.33752 8.76364 1.49515 6.9516 1.16586 2.82782C1.16586 2.82782 1.16586 2.82782 1.16586 2.82782C1.16586 2.82782 1.16586 2.82782 1.16586 2.82782Z" fill="url(#gradient_1)" fill-rule="evenodd" transform="translate(264.494 347.26)" />
    <path id="states-map-of-tunisia-with-detailed-borders-free-vector 1 (Traced)#23" d="M22.5897 3.48898C21.202 4.61264 20.7873 4.17432 20.895 1.69839C20.9716 -0.0681152 21.0746 -0.302429 21.5116 0.295319C21.8002 0.690308 21.95 1.1532 21.844 1.3244C21.7385 1.49564 22.0888 1.86957 22.623 2.15555C22.623 2.15555 23.5943 2.67535 23.5943 2.67535L22.5897 3.48898L22.5897 3.48898C22.5897 3.48898 22.5897 3.48898 22.5897 3.48898ZM14.2385 7.09424C14.2498 6.45667 14.8287 5.87292 16.2025 5.11316C17.6922 4.28992 18.06 4.23822 19.2113 4.69058C19.8673 4.94806 19.6553 5.125 18.1481 5.57648C17.1129 5.88651 15.8083 6.44003 15.2487 6.80655C14.6895 7.17307 14.235 7.3027 14.2385 7.09424C14.2385 7.09424 14.2385 7.09424 14.2385 7.09424C14.2385 7.09424 14.2385 7.09424 14.2385 7.09424ZM4.50604 13.2013L2.25302 12.0776L0 10.954C0 10.954 2.18951 11.123 2.18951 11.123C3.39377 11.2158 4.9549 11.2911 5.6586 11.2898C5.6586 11.2898 6.93771 11.2881 6.93771 11.2881L5.72168 12.2445L4.50604 13.2013L4.50604 13.2013L4.50604 13.2013Z" fill="url(#gradient_1)" fill-rule="evenodd" transform="translate(282.886 260.554)" />
    <path id="states-map-of-tunisia-with-detailed-borders-free-vector 1 (Traced)#24" d="M16.1858 2.02261C15.6594 1.03907 15.9726 0.539429 17.3182 0.215813C19.2581 -0.250557 19.9802 -0.0267944 21.5843 1.5396C23.1979 3.11562 23.3026 3.15154 24.4306 2.51833C25.0748 2.15662 25.7089 1.41918 25.839 0.879234C26.0671 -0.0635757 26.1241 -0.0425568 27.2757 1.40341C27.2757 1.40341 28.4747 2.90981 28.4747 2.90981C28.4747 2.90981 27.1339 5.89502 27.1339 5.89502C24.58 11.5812 23.5877 15.8136 23.3548 22.0178C23.1936 26.3071 23.3132 28.4415 23.8382 30.6757C24.6764 34.2411 26.0733 37.1256 26.9609 37.1256C27.3173 37.1256 27.609 37.5123 27.609 37.9848C27.609 39.7824 29.5821 43.9964 32.0506 47.4694C33.4611 49.454 34.6154 51.3952 34.6154 51.7832C34.6154 52.4502 35.6993 54.2324 37.2858 56.1746C38.1191 57.1949 38.6941 59.7601 38.1629 60.0881C37.9623 60.2125 37.8857 60.7708 37.9926 61.3296C38.1581 62.1966 38.0097 62.342 36.9775 62.3249C36.9775 62.3249 35.7685 62.3052 35.7685 62.3052C35.7685 62.3052 35.715 67.1222 35.715 67.1222C35.6686 71.2631 35.5267 72.1542 34.7021 73.4719C34.1745 74.3148 33.7423 75.1272 33.7414 75.2769C33.7405 75.4267 32.9378 75.6776 31.9582 75.8344C29.7267 76.1913 28.0469 77.7896 28.0469 79.557C28.0469 80.276 28.2439 80.9863 28.4848 81.1352C29.3063 81.6428 28.924 82.2116 27.1535 83.1146C24.0308 84.7077 23.7865 87.2532 26.4963 89.963C27.598 91.0648 28.3381 91.426 29.4928 91.426C30.8031 91.426 31.0934 91.2347 31.4844 90.1123C32.002 88.6274 32.3353 88.521 33.5465 89.4519C34.3706 90.086 34.3531 90.1421 32.9584 91.3144C32.1671 91.9787 31.269 93.0148 30.9616 93.6164C30.052 95.3974 28.2037 94.9599 26.0023 92.4429C24.9978 91.2947 24.0668 89.808 23.9332 89.1393C23.7515 88.2319 23.4336 87.9228 22.6817 87.9228C22.1269 87.9228 21.2843 87.6565 20.8097 87.3316C19.6597 86.5443 16.7507 86.1103 16.4026 86.6739C16.065 87.2195 13.8785 85.1942 12.6331 83.182C12.6331 83.182 11.7319 81.7255 11.7319 81.7255C11.7319 81.7255 13.3951 80.0221 13.3951 80.0221C15.0911 78.2853 15.0538 78.101 12.9392 77.7616C12.4054 77.6762 11.8878 77.0807 11.6141 76.2368C11.3671 75.4757 10.8609 74.4926 10.4891 74.0525C10.1174 73.6129 9.50165 72.4647 9.12067 71.5013C6.71263 65.4096 5.22945 62.3048 4.22839 61.2599C3.60045 60.6044 3.08633 59.877 3.08633 59.6436C3.08633 59.4107 2.3918 58.1653 1.54314 56.8765C1.54314 56.8765 0 54.5333 0 54.5333C0 54.5333 1.0295 53.1644 1.0295 53.1644C1.59615 52.4116 2.78023 50.1205 3.66173 48.0733C4.54279 46.0261 5.75314 43.3658 6.35089 42.1615C8.84431 37.1388 6.95654 29.2433 3.26151 29.2433C2.40103 29.2433 2.3349 29.0603 2.50919 27.1632C2.84155 23.5387 2.98344 23.2488 4.77579 22.532C6.80022 21.7218 7.90327 19.4754 7.90327 16.163C7.90327 16.163 7.90327 14.048 7.90327 14.048C7.90327 14.048 11.0925 14.2529 11.0925 14.2529C14.0891 14.4451 14.3703 14.3834 15.7348 13.2352C17.0375 12.1391 17.1597 11.844 16.9233 10.3639C16.7783 9.45695 16.8256 8.61223 17.0283 8.48655C17.4864 8.20366 16.8405 3.24568 16.1858 2.02261C16.1858 2.02261 16.1858 2.02261 16.1858 2.02261C16.1858 2.02261 16.1858 2.02261 16.1858 2.02261Z" fill="url(#gradient_1)" fill-rule="evenodd" transform="translate(214.135 97.215)" />
    <path id="states-map-of-tunisia-with-detailed-borders-free-vector 1 (Traced)#25" d="M22.1407 4.52809C22.5602 3.35187 23.1076 1.83759 23.3567 1.16278C24.0745 -0.781525 25.439 -0.251221 26.7501 2.48175C28.2096 5.52389 28.422 5.68636 31.1698 5.86502C32.4722 5.94954 34.6704 6.46101 36.0555 7.00139C38.1618 7.82378 38.7876 8.3335 39.8872 10.1202C40.6097 11.2946 41.2009 12.431 41.2009 12.6456C41.2009 13.1321 45.1245 15.9798 46.3165 16.3581C47.0802 16.6007 47.191 16.9975 47.1546 19.3661C47.1043 22.6377 47.321 22.6771 51.7106 20.199C53.2761 19.3149 54.7186 18.5214 54.9165 18.4356C55.1145 18.3497 55.1451 19.6306 54.9853 21.282C54.7628 23.577 54.867 24.7489 55.4289 26.2553C55.8326 27.3391 56.1426 28.8358 56.1172 29.5812C56.0918 30.3269 56.3699 31.5093 56.7347 32.2086C57.699 34.0574 57.5606 35.4206 56.3086 36.4055C54.9362 37.4849 54.9388 37.8659 56.3301 39.1551C57.8561 40.5691 57.152 40.8678 53.1697 40.4942C50.1688 40.2131 49.7957 40.2687 48.8726 41.1362C48.0497 41.9091 47.9039 42.4004 48.0883 43.7767C48.7097 48.4072 47.1963 49.9022 41.8867 49.9022C38.7868 49.9022 38.7729 49.9391 38.2499 51.3246C38.2499 51.3246 38.2443 51.3394 38.2443 51.3394C37.8939 52.2682 37.8615 52.8918 38.1484 53.1786C38.8604 53.8906 38.6497 54.7244 37.4564 55.9177C37.4564 55.9177 36.3297 57.0445 36.3297 57.0445C36.3297 57.0445 35.0922 55.8586 35.0922 55.8586C33.9979 54.8102 33.736 54.7358 32.8252 55.2157C31.3241 56.0066 31.2391 56.279 31.4729 59.5453C31.7072 62.8165 31.2119 63.6984 30.0966 61.9963C29.0535 60.4045 26.7142 59.4809 23.7242 59.4809C21.2387 59.4809 21.0582 59.4078 20.2757 58.0818C19.5422 56.8386 17.3527 55.6952 15.1549 55.4075C14.5142 55.3239 13.0985 56.0539 12.0462 57.0103C11.307 57.6816 10.9019 57.76 9.97885 57.4092C9.97885 57.4092 8.8311 56.9726 8.8311 56.9726C8.8311 56.9726 9.90878 54.6579 9.90878 54.6579C11.335 51.5951 11.6727 49.6683 11.0018 48.4155C10.429 47.3444 8.84074 46.4313 7.552 46.4313C7.10008 46.4313 6.47691 45.8003 6.05478 44.9153C5.31779 43.3695 2.52922 41.5539 1.47038 41.9305C1.10867 42.0593 0.922989 41.6669 0.922989 40.7749C0.922989 39.7848 0.718918 39.4222 0.156647 39.4152C-0.264618 39.41 0.193436 39.0408 1.17479 38.595C3.92395 37.3465 7.63911 33.4632 8.54997 30.8857C9.68719 27.6666 9.99452 20.9526 9.07231 19.6354C8.15666 18.3283 8.17375 18.0524 9.18968 17.7301C10.4412 17.3329 12.3417 15.2813 13.0573 13.556C13.9768 11.3371 16.1742 9.22858 18.1093 8.70748C20.2761 8.12418 21.2001 7.16604 22.1407 4.52809C22.1407 4.52809 22.1407 4.52809 22.1407 4.52809C22.1407 4.52809 22.1407 4.52809 22.1407 4.52809Z" fill="url(#gradient_1)" fill-rule="evenodd" transform="translate(171.221 68.751)" />
    <path id="states-map-of-tunisia-with-detailed-borders-free-vector 1 (Traced)#26" d="M42.5066 1.54968C43.5913 1.36618 44.3529 0.999298 44.3529 0.618317C44.3529 0.249176 44.7983 0 45.4578 0C46.4938 0 46.5245 0.0613098 45.9478 0.985291C45.1477 2.26703 44.694 4.25952 44.9896 5.19138C45.1184 5.59686 45.9088 6.29797 46.7461 6.74857C47.5838 7.19962 48.1785 7.71503 48.0681 7.89413C47.9573 8.07281 46.9677 8.35394 45.8685 8.51901C44.2561 8.76074 43.7867 9.03839 43.4373 9.95798C43.199 10.5846 42.3302 12.0153 41.5065 13.1372C40.6829 14.2591 39.7922 15.748 39.5268 16.4456C39.0845 17.6091 39.1646 17.8162 40.4946 18.9465C41.292 19.6243 43.3729 21.1623 45.1184 22.3634C47.512 24.0108 48.5498 25.0566 49.3407 26.6155C50.7332 29.3616 51.623 30.0627 54.0424 30.3189C57.3617 30.671 62.3605 32.7988 63.0901 34.2097C63.4347 34.8753 64.0237 35.5922 64.399 35.8024C64.9656 36.1194 64.9932 36.3787 64.5623 37.3245C64.2768 37.9516 64.1752 38.9916 64.3368 39.6358C64.6105 40.7257 64.7585 40.7906 66.4725 40.5712C67.4853 40.4416 72.4525 40.0978 77.5103 39.807C85.2603 39.3621 86.923 39.3748 88.0848 39.8894C88.0848 39.8894 89.4629 40.4998 89.4629 40.4998C89.4629 40.4998 88.7815 42.5969 88.7815 42.5969C88.4071 43.7504 87.3916 45.5239 86.5254 46.5381C85.6592 47.5523 84.0915 49.663 83.0419 51.2285C81.6117 53.3615 79.9222 55.0076 76.3003 57.7971C73.6418 59.8443 67.7967 64.5833 63.3112 68.3283C58.8254 72.0728 52.7888 76.8447 49.8965 78.9322C47.0037 81.0197 43.3634 83.8398 41.8062 85.1991C36.7659 89.5996 30.7071 94.4149 27.3103 96.7196C24.0001 98.9652 19.1431 101.176 17.6744 101.167C16.6834 101.161 10.0803 91.1436 7.28555 85.407C5.60619 81.9594 5.30489 80.9736 5.52647 79.6507C5.67361 78.7731 5.55581 76.4084 5.26417 74.3958C4.70672 70.5497 3.92944 69.1353 1.31253 67.2037C1.31253 67.2037 0.0846405 66.2977 0.0846405 66.2977C0.0846405 66.2977 0.926291 64.9134 0.926291 64.9134C1.76269 63.538 1.76139 63.5073 0.762531 60.0575C-0.210492 56.6983 -0.217499 56.552 0.543579 55.5602C1.12862 54.7978 1.3213 53.7937 1.29502 51.6479C1.27269 49.8332 1.51177 48.2738 1.93873 47.4479C2.59515 46.1789 2.57282 46.0799 1.27837 44.51C0.541818 43.6162 0.0110814 42.821 0.0991001 42.7422C0.187119 42.6638 1.10584 42.1725 2.14148 41.6505C3.17669 41.1281 4.13964 40.399 4.28108 40.0302C4.42252 39.6615 4.95939 39.1995 5.47393 39.0042C6.05897 38.7818 6.44519 38.2142 6.50518 37.4904C6.60809 36.2494 7.52815 34.2433 8.86945 32.3349C8.86945 32.3349 9.69926 31.1547 9.69926 31.1547L12.5929 32.4527L15.4862 33.7511L19.1803 31.2161L22.8745 28.681C22.8745 28.681 22.9949 26.2813 22.9949 26.2813C23.0615 24.961 23.8353 21.668 24.715 18.9626C25.5943 16.2576 26.3142 13.3009 26.3142 12.3918C26.3142 10.592 26.6606 10.3371 30.5838 9.25287C31.6523 8.95728 32.4449 8.47473 32.4449 8.11957C32.4449 7.44958 34.2539 6.49844 37.0564 5.69489C38.3842 5.31433 39.0603 4.77441 39.7833 3.51807C40.5697 2.15134 41.0659 1.79315 42.5066 1.54968C42.5066 1.54968 42.5066 1.54968 42.5066 1.54968C42.5066 1.54968 42.5066 1.54968 42.5066 1.54968Z" fill="url(#gradient_1)" fill-rule="evenodd" transform="translate(0 287.705)" />
  </g>
</svg>